<?xml version="1.0" encoding="UTF-8"?>
<svg id="Layer_2" data-name="Layer 2" xmlns="http://www.w3.org/2000/svg" viewBox="0 0 975.24 975.24">
  <defs>
    <style>
      .cls-1 {
        fill: #cdaf8b;
      }
    </style>
  </defs>
  <g id="Layer_2-2" data-name="Layer 2">
    <g>
      <rect class="cls-1" x="0" y="0" width="975.24" height="975.24"/>
      <path d="M692.02,408.46c-17.11,2.62-35.11,4.86-52.34,6.49-16.91,1.6-37.5,1.02-53.66,4.47-18.94,4.04-18.83,16.43-28.34,29.79-6.31,8.86-13.85,14.45-23.72,18.82-2.19.97-12.53,5.08-14.13,5.05-2.25-.04-2.18-5.79-2.77-7.8-1.72-5.86-4.9-9.87-.36-15.93,3.89-5.21,11.79-8.02,18.1-8.18,4.6-.11,8.27,3.49,13.25,1.25,8.53-3.84,1.71-16.09-5.12-18.6-1.69-.62-7.46-.9-7.73-1.17-.23-.22.14-1.4-.23-1.81-.32-.36-6.38-5.05-7.41-5.75-17.73-12.26-45.43-4.34-64.74-.11,4.21,3.67,11.22,2.77,16.3,4.6-12.77,12.39-20.98,28.31-26.61,45.04-2.44-.06-12.09-8.22-14.52-10.29-9.85-8.39-29.72-31.28-40.8-34.35-10.78-2.98-24.36-2.04-35.43-2.85-24.06-1.76-48.3-3.86-72.19-7.21-22.96-3.22-45.74-7.68-67.79-14.79,8.54,17,22.4,33.78,41.28,39.17,19.93,5.68,40.69,4.98,61.15,6.91,21.45,2.02,42.91,5.8,64.49,5.67l.74,1.41c-.82,1.16-15.7,1.22-18.43,1.42-24.78,1.9-49.63,4.21-74.41,4.98-8.61.27-17.32-.55-25.9.32,11.24,11.18,24.58,25.84,41.48,27.28,6.16.53,14.88-.66,21.15-1.51,19.93-2.7,44.6-10.14,64.09-11.06,2.37-.11,5.34,1.09,7.97.54l-78.68,26.94,10.6,6.76c3.5,1.31,6.76,3.24,10.19,4.7,14.4,6.15,19.7,8.59,34.76,1.9,16.58-7.37,31.25-19.54,47.95-26.83l-41.12,38.98c10.91-.08,23.14,6.69,33.69,2.15,2.99-1.29,6.96-5.19,9.56-7.45,6.17-5.35,12.07-11.76,18.07-17.36,1.8,1.33.5,1.15.06,2.17-5.91,13.6-13.72,28.2-23.1,39.64l19.16,8.91,19.82-29.46-10.68,35.67,31.24,23.88v-13.11c0-.2.87-3.86,1.07-3.9h1.05c-.6,1.33.71,3.26.71,3.9v11.7l28.97-22.48-10.53-36.36,19.92,30.4,19.06-8.43-9.34-14.41-13.35-27.41c1.33-.31,1.69.74,2.48,1.41,8.7,7.28,21.16,24.93,33.21,24.55l25.98-4-39.69-38.98c14.93,7.14,28.36,18.04,43.21,25.19,14.67,7.07,18.93,7.63,34.04,1.36,8.17-3.39,15.74-8.06,23.41-12.39l-77.97-27.63c4.07-.28,7.54-.31,11.6.1,23.66,2.38,48.94,10.55,72.42,11.94,19.01,1.12,32.36-10.48,45.03-23.01,1.43-1.42,1.92-3.73,4.23-3.93.19-1.16-.96-.66-1.75-.7-21.62-1.14-43.58-.16-65.22-2.13l-46.81-3.54-1.05-1.41c23.59-1.61,47.01-4.88,70.54-7.09,17.76-1.67,36.16-.65,53.35-6.2,18.27-5.9,34.02-22.83,41.99-39.88-19.87,6.96-40.63,10.87-61.43,14.06ZM512.83,427.67c-1.13-.18-11.98-5.07-13.87-5.98-.83-.4-1.95-.71-2.13-1.76,3.4-.19,6.95,1.35,10.26,1.45,3.25.1,6.06-1.06,9.17-.69,3,.36,5.75,2.81,8.93,2.79.3,1.62-.1,1.13-.91,1.57-2.96,1.64-8.07,3.15-11.46,2.63Z"/>
    </g>
  </g>
</svg>