<svg xmlns="http://www.w3.org/2000/svg" xmlns:xlink="http://www.w3.org/1999/xlink" width="39.084" height="45.878" viewBox="0 0 39.084 45.878">
  <defs>
    <clipPath id="clip-path">
      <rect id="Rectangle_51" data-name="Rectangle 51" width="39.084" height="45.878" fill="#687388"/>
    </clipPath>
  </defs>
  <g id="Group_57" data-name="Group 57" clip-path="url(#clip-path)">
    <path id="Path_46" data-name="Path 46" d="M24.109,6.926H27.8c2.545,0,5.5,3.33,5.5,5.825v8.6c-.625-.664-1.069-1.412-1.766-2.027-2.412-2.129-5.442-2.368-8.549-2.145a8.587,8.587,0,0,0-7.747,6.839c-4.358-.424-7.917,2.246-8.222,6.685-.263,3.813.193,7.91,0,11.754a7.921,7.921,0,0,0,.961,3.261H6.1C3.1,45.721.172,42.548.169,39.58c.415-8.657-.537-17.808,0-26.407A6.542,6.542,0,0,1,3.66,7.581a9.137,9.137,0,0,1,2.017-.655H9.363V4.308c0-1.424,1.873-3.3,3.133-3.813C13.9-.08,17.86-.059,19.459.088c1.888.174,4.65,2.209,4.65,4.22Zm-3.419,0V4.735c0-.425-.719-1.006-1.115-1.129a30.888,30.888,0,0,0-5.431-.075A2.289,2.289,0,0,0,13.218,4a5.161,5.161,0,0,0-.435.74V6.926Z" transform="translate(0 0)" fill="#687388"/>
    <path id="Path_47" data-name="Path 47" d="M68.853,102.867h5.076c1.39,0,2.8,1.727,2.937,3.047.387,3.832-.287,8.285,0,12.183a3.579,3.579,0,0,1-3.47,3.049c-7.016-.375-14.529.486-21.487,0a3.57,3.57,0,0,1-3.579-3.474c-.237-3.016.026-6.674.089-9.729.029-1.377-.352-2.339.574-3.615a3.867,3.867,0,0,1,2.279-1.461h5.076v-2.191A5.408,5.408,0,0,1,59.559,96.4a10.828,10.828,0,0,1,6.4.117c1.143.53,2.9,2.431,2.9,3.729Zm-3.419,0v-2.191c0-.477-.824-1.086-1.276-1.182a12.987,12.987,0,0,0-3.192.026c-.444.115-1.2.811-1.2,1.263v2.084Z" transform="translate(-37.905 -75.421)" fill="#687388"/>
  </g>
</svg>
