<svg xmlns="http://www.w3.org/2000/svg" xmlns:xlink="http://www.w3.org/1999/xlink" width="9.06" height="13.929" viewBox="0 0 9.06 13.929">
  <defs>
    <clipPath id="clip-path">
      <rect id="Rectangle_19" data-name="Rectangle 19" width="9.06" height="13.929" fill="#687389"/>
    </clipPath>
  </defs>
  <g id="Group_17" data-name="Group 17" clip-path="url(#clip-path)">
    <path id="Path_19" data-name="Path 19" d="M9.019,4.552A1.545,1.545,0,0,0,7.521,3H7.013V1.269C7.013.782,6.375.2,5.928.087A13.032,13.032,0,0,0,3.453.032,1.528,1.528,0,0,0,2.262.789a2.208,2.208,0,0,0-.188.48V3H1.536a1.55,1.55,0,0,0-1.5,1.583c-.122,2.227.1,4.565,0,6.8a3.272,3.272,0,0,1,.038.34,1.512,1.512,0,0,0,1.532,1.214.749.749,0,1,0,1.424,0H6.039a.969.969,0,0,0,.119.667.747.747,0,0,0,1.32-.667,1.516,1.516,0,0,0,1.54-1.5c-.1-2.263.133-4.64,0-6.89M6.025,3H3.062V1.385a1.5,1.5,0,0,1,.131-.218.612.612,0,0,1,.323-.142,13.945,13.945,0,0,1,1.974,0,.6.6,0,0,1,.355.11.875.875,0,0,1,.182.254Z" transform="translate(0 -0.001)" fill="#687389"/>
  </g>
</svg>
