<svg xmlns="http://www.w3.org/2000/svg" xmlns:xlink="http://www.w3.org/1999/xlink" width="20.956" height="50.358" viewBox="0 0 20.956 50.358">
  <defs>
    <clipPath id="clip-path">
      <rect width="20.956" height="50.358" fill="none"/>
    </clipPath>
    <clipPath id="clip-path-2">
      <rect id="Rectangle_42" data-name="Rectangle 42" width="20.956" height="50.358" fill="#687288"/>
    </clipPath>
  </defs>
  <g id="Repeat_Grid_1" data-name="Repeat Grid 1" clip-path="url(#clip-path)">
    <g id="Group_39" data-name="Group 39">
      <g id="Group_38" data-name="Group 38" clip-path="url(#clip-path-2)">
        <path id="Path_30" data-name="Path 30" d="M20.957,78.987v5.2H9.649a3.846,3.846,0,0,0-.534.249,1.584,1.584,0,0,0,0,2.638,3.839,3.839,0,0,0,.534.249H20.957v1.911c0,2.326-2.346,4.212-4.548,4.367-3.869.272-8.05-.215-11.952,0A4.9,4.9,0,0,1,.006,89.231V87.319H2.992c.561,0,1.218-.966,1.231-1.52.015-.594-.624-1.617-1.231-1.617H.006v-5.2H2.8A1.756,1.756,0,0,0,4.22,77.464c.029-.55-.576-1.614-1.13-1.614H.152c-.1,0-.152-.229-.151-.338.017-2.573,1.084-4.554,1.867-6.865.742-2.191.264-1.808-.7-3.514a9.194,9.194,0,0,1-.392-8.072,12.134,12.134,0,0,1,2.075-3.118l15.2-.031a9.559,9.559,0,0,1,2.567,9.293c-.392,1.5-1.169,2.09-1.734,3.264a2.689,2.689,0,0,0,.213,2.178c.671,1.981,1.5,3.524,1.752,5.7.021.179.122,1.282.1,1.346-.056.169-.191.15-.328.166-.537.063-1.3-.006-1.869,0-3.054.028-6.176-.065-9.255.038a1.574,1.574,0,0,0-.583,2.657,2.629,2.629,0,0,0,.933.438Z" transform="translate(-0.001 -43.324)" fill="#687288"/>
        <path id="Path_31" data-name="Path 31" d="M21.234,3.168A3.89,3.89,0,0,1,24.705.076a31.332,31.332,0,0,1,6.568.2c1.027.335,2.493,1.767,2.493,2.9V7.432H21.234c.128-1.329-.173-2.975,0-4.264" transform="translate(-17.019 0)" fill="#687288"/>
      </g>
    </g>
  </g>
</svg>
