<svg xmlns="http://www.w3.org/2000/svg" xmlns:xlink="http://www.w3.org/1999/xlink" width="21.707" height="19.044" viewBox="0 0 21.707 19.044">
  <defs>
    <clipPath id="clip-path">
      <rect id="Rectangle_108" data-name="Rectangle 108" width="21.707" height="19.044" fill="#fff"/>
    </clipPath>
  </defs>
  <g id="Group_153" data-name="Group 153" clip-path="url(#clip-path)">
    <path id="Path_103" data-name="Path 103" d="M16.28,16.287H5.428v1.59c0,.5-.728,1.074-1.209,1.123-.966.1-2.1-.063-3.083-.011A1.388,1.388,0,0,1,0,17.751V8.125l.057-.367L2.82,2.17c.313-.671,1.151-.888,1.8-1.121a18.969,18.969,0,0,1,12.768.115c.647.248,1.113.343,1.48.978C19.878,3.88,20.63,5.937,21.623,7.7l.085.382v9.668a1.378,1.378,0,0,1-1,1.2A19.2,19.2,0,0,1,17.488,19c-.49-.05-1.209-.606-1.209-1.123ZM17.467,5.435l-.834-1.645A16.04,16.04,0,0,0,5.079,3.782L4.241,5.435Zm1.526,8.139V8.466c0-.022-.175-.38-.273-.32H2.988c-.1-.059-.273.3-.273.32v5.108Z" transform="translate(0 0)" fill="#fff"/>
    <path id="Path_104" data-name="Path 104" d="M160.913,111.65a7.418,7.418,0,0,1,2.06.079,1.358,1.358,0,0,1,.121,2.483,5.578,5.578,0,0,1-2.441.049,1.362,1.362,0,0,1,.26-2.612" transform="translate(-146.212 -102.134)" fill="#fff"/>
    <path id="Path_105" data-name="Path 105" d="M49.143,111.622a6.252,6.252,0,0,1,2.181.128,1.364,1.364,0,0,1-.5,2.575,6.61,6.61,0,0,1-2.044-.121,1.372,1.372,0,0,1,.358-2.582" transform="translate(-43.938 -102.106)" fill="#fff"/>
  </g>
</svg>
