<svg id="Group_37" data-name="Group 37" xmlns="http://www.w3.org/2000/svg" xmlns:xlink="http://www.w3.org/1999/xlink" width="39.416" height="46.162" viewBox="0 0 39.416 46.162">
  <defs>
    <clipPath id="clip-path">
      <rect id="Rectangle_41" data-name="Rectangle 41" width="39.416" height="46.162" fill="#687188"/>
    </clipPath>
  </defs>
  <g id="Group_36" data-name="Group 36" clip-path="url(#clip-path)">
    <path id="Path_26" data-name="Path 26" d="M20.2,0V26.995a11.533,11.533,0,1,1-17.3,0V0ZM14.431,5.769H8.663V20.19h5.768Z" transform="translate(0)" fill="#687188"/>
    <path id="Path_27" data-name="Path 27" d="M169.994,176.142c.131-.033.148.083.211.149a12.349,12.349,0,0,1,.862,1.3c1.115,1.723,3.586,5.751,3.751,7.7a4.818,4.818,0,0,1-8.24,3.734c-2.652-2.757-.7-6.059.831-8.794.787-1.4,1.682-2.756,2.585-4.085" transform="translate(-135.421 -144.325)" fill="#687188"/>
    <path id="Path_28" data-name="Path 28" d="M174.309,80.345c.148-.037.766.984.893,1.179.884,1.357,3.011,4.907,3.026,6.437a3.883,3.883,0,0,1-6.4,2.885c-2.369-2.069-.988-4.649.224-6.9a41.46,41.46,0,0,1,2.256-3.6" transform="translate(-139.736 -65.833)" fill="#687188"/>
    <path id="Path_29" data-name="Path 29" d="M178.729.494c.148-.037.6.743.712.909.7,1.074,2.161,3.495,2.22,4.722a2.911,2.911,0,0,1-4.873,2.167c-2.356-2.189.752-5.764,1.941-7.8" transform="translate(-144.155 -0.404)" fill="#687188"/>
  </g>
</svg>
