<svg id="Group_35" data-name="Group 35" xmlns="http://www.w3.org/2000/svg" xmlns:xlink="http://www.w3.org/1999/xlink" width="40.856" height="42.983" viewBox="0 0 40.856 42.983">
  <defs>
    <clipPath id="clip-path">
      <rect id="Rectangle_40" data-name="Rectangle 40" width="40.856" height="42.983" fill="#687288"/>
    </clipPath>
  </defs>
  <g id="Group_34" data-name="Group 34" clip-path="url(#clip-path)">
    <path id="Path_23" data-name="Path 23" d="M33.707,56.537h3.127V53.752a1.692,1.692,0,0,1,1.881-1.394c1.835.289,1.111,2.927,1.241,4.212a1.806,1.806,0,0,1,1.071,1.3,27.569,27.569,0,0,1-.135,5.711,5.891,5.891,0,0,1-4.045,4.212l-.01,11.57a7.214,7.214,0,0,1-5.86,6.256c-4.232.065-8.83.39-13.054.146a7.15,7.15,0,0,1-7.079-7.334c-3.536-.2-8.089,1.077-9.953-2.9a11.611,11.611,0,0,1-.5-5.068,1.571,1.571,0,0,1,3.127,0c.193,1.717-.72,4.188,1.558,4.794L19.3,75.3A1.938,1.938,0,0,0,21.2,73.5l0-18.758a1.582,1.582,0,0,1,3.025-.5c.209,6.585.046,13.226.083,19.832-.145,1.934-2.488,4.359-4.435,4.359H13.97a3.984,3.984,0,0,0,3.872,4.19c3.823.323,8.042-.214,11.907.011a4.082,4.082,0,0,0,3.958-3.469l0-11.238c-.048-.249-.884-.476-1.2-.653a5.938,5.938,0,0,1-2.46-2.719c-.586-1.384-.6-5.043-.446-6.6.093-.958.864-1.081.966-1.379.166-.484-.054-2.034.027-2.71a1.585,1.585,0,0,1,2.481-1.233,2.618,2.618,0,0,1,.634.831Zm4.2,3.127H32.73V62.84a8.047,8.047,0,0,0,.308.766,2.679,2.679,0,0,0,4.463.1,7.986,7.986,0,0,0,.407-.961Z" transform="translate(-0.259 -42.867)" fill="#687288"/>
    <path id="Path_24" data-name="Path 24" d="M6.66,3.231C5.247,3.106,3.748,3.185,3.3,4.772L3.25,21.433a1.581,1.581,0,0,1-3.123-.089c.306-5.345-.4-11.13,0-16.423A5.214,5.214,0,0,1,5.353.083c4.467-.266,9.193.21,13.687,0a5.219,5.219,0,0,1,5.026,4.55,18.491,18.491,0,0,1-.021,3.1,1.625,1.625,0,0,1-2.127,1c-1.647-.712-.609-3.058-1.124-4.348-.483-1.208-2.068-1.3-3.176-1.126-.548.921-.569,1.891-1.832,2.077-2.285-.107-4.859.231-7.111.029C7.344,5.249,7.084,4.307,6.66,3.231" transform="translate(0 0)" fill="#687288"/>
    <path id="Path_25" data-name="Path 25" d="M41.009,57.584h5.227c.306,0,.588.7.387.973l-6.553,9.472a.674.674,0,0,1-1.011-.711L40.912,61.4H35.684c-.182,0-.493-.427-.447-.637l6.654-9.767c.437-.374,1.047.146,1.021.645Z" transform="translate(-28.862 -41.667)" fill="#687288"/>
  </g>
</svg>
