<svg id="Group_49" data-name="Group 49" xmlns="http://www.w3.org/2000/svg" xmlns:xlink="http://www.w3.org/1999/xlink" width="58.687" height="54.129" viewBox="0 0 58.687 54.129">
  <defs>
    <clipPath id="clip-path">
      <rect id="Rectangle_48" data-name="Rectangle 48" width="58.687" height="54.129" fill="#687388"/>
    </clipPath>
  </defs>
  <g id="Group_48" data-name="Group 48" clip-path="url(#clip-path)">
    <path id="Path_41" data-name="Path 41" d="M67.851,68.547a2,2,0,0,0-.588-.268c-1.655-.3-1.76.791-2.111,2.053C64.487,72.719,64,76.293,63.1,78.448a2.274,2.274,0,0,1-4.335-1.023c.317-5.21,1.39-10.665,1.6-15.85.035-.884-.353-1.389-1.263-.993-1.429,1.37-2.578,3.251-3.953,4.63a2.923,2.923,0,0,1-1.12.861,2.248,2.248,0,0,1-2.67-3.33c3.7-4.933,6.19-12,13.3-12.585,4.708-.386,8.869.369,11.947,4.161a71.2,71.2,0,0,1,5.606,8.261,2.256,2.256,0,0,1-.254,3.026c-1.1,1.062-2.494.577-3.434-.394-1.365-1.408-2.529-3.242-3.953-4.63-1.036-.416-1.3.2-1.261,1.127.212,5.131,1.314,10.554,1.594,15.718a2.266,2.266,0,0,1-4.355.91c-1.057-2.577-1.345-6.232-2.294-8.931a4.43,4.43,0,0,0-.4-.858" transform="translate(-37.503 -36.815)" fill="#687388"/>
    <path id="Path_42" data-name="Path 42" d="M17.442,126.246l-.394,3.369c-3.37.777-6.961,1.489-10,3.211-2.449,1.39-3.66,2.64-.877,4.62,6.07,4.32,20.154,5.065,27.451,4.652,5.389-.305,14.209-1.482,18.7-4.544,2.328-1.588,2.4-2.673.024-4.284a21.6,21.6,0,0,0-5.222-2.305c-1.684-.526-3.667-.723-5.228-1.243-.157-.052-.339-.071-.4-.258l-.281-3.217a12.86,12.86,0,0,0,2.309.129c.631-.055,1.418-.46,1.87-.485,1.006-.055,5.356,1.553,6.475,2.049,10.841,4.8,7.667,12.226-1.905,15.7-11.441,4.158-32.417,4.273-43.53-.91-8.651-4.035-8.532-10.695.09-14.663,1.311-.6,5.36-2.155,6.65-2.181.425-.008,1.346.432,1.96.485a12.86,12.86,0,0,0,2.309-.129" transform="translate(0 -92.569)" fill="#687388"/>
    <path id="Path_43" data-name="Path 43" d="M97.864.04c5.979-.706,6.76,8.225,1.4,8.931C92.81,9.822,92.138.716,97.864.04" transform="translate(-69.094 0)" fill="#687388"/>
  </g>
</svg>
