<svg id="Group_91" data-name="Group 91" xmlns="http://www.w3.org/2000/svg" xmlns:xlink="http://www.w3.org/1999/xlink" width="60.925" height="60.912" viewBox="0 0 60.925 60.912">
  <defs>
    <clipPath id="clip-path">
      <rect id="Rectangle_82" data-name="Rectangle 82" width="60.925" height="60.911" fill="#cdaf8b"/>
    </clipPath>
  </defs>
  <g id="Group_90" data-name="Group 90" clip-path="url(#clip-path)">
    <path id="Path_85" data-name="Path 85" d="M12.188,0V4.061h28.43V0H44.68V4.061h2.856c2.389,0,5.319,3.23,5.272,5.644L52.8,27.453A18.274,18.274,0,1,1,27.456,52.8H5.527A6.27,6.27,0,0,1,0,47.157L.006,9.585c.01-2.353,2.936-5.523,5.266-5.523H8.127V0ZM8.127,8.123H5.652A2.478,2.478,0,0,0,4.065,9.71v6.536H48.742V9.71a2.477,2.477,0,0,0-1.586-1.587H44.68v4.061H40.619V8.123H12.188v4.061H8.127ZM48.742,20.308H4.065V47.153a2.478,2.478,0,0,0,1.587,1.587H25.515a17.209,17.209,0,0,1-1.143-6.6L19.8,44.677l1.5-7.53-5.567-5.034,7.6-.777,2.934-6.84.282.162,2.511,5.8c4.925-5.343,12.745-7.683,19.671-4.95Zm-7.26,8.161c-11.228.866-16.948,13.988-10.052,22.922A14.228,14.228,0,1,0,41.482,28.469" transform="translate(0.001)" fill="#cdaf8b"/>
    <path id="Path_86" data-name="Path 86" d="M147.7,141.764l2.829,2.829L140.3,154.819,132.77,147.4l2.853-2.853,4.679,4.558Z" transform="translate(-99.002 -105.709)" fill="#cdaf8b"/>
  </g>
</svg>
