<svg id="Group_41" data-name="Group 41" xmlns="http://www.w3.org/2000/svg" xmlns:xlink="http://www.w3.org/1999/xlink" width="38.198" height="44.463" viewBox="0 0 38.198 44.463">
  <defs>
    <clipPath id="clip-path">
      <rect id="Rectangle_43" data-name="Rectangle 43" width="38.198" height="44.463" fill="#687288"/>
    </clipPath>
  </defs>
  <g id="Group_40" data-name="Group 40" clip-path="url(#clip-path)">
    <path id="Path_32" data-name="Path 32" d="M13.157,20.13l1.773,6.006H34.318a4.06,4.06,0,0,1,2.1,7.411,6.507,6.507,0,0,1-1.395.609H33.194l2.919,7.512A2.041,2.041,0,0,1,34.083,44.3c-7.1-.408-14.782.528-21.814,0a2.053,2.053,0,0,1-2.178-2.425l2.949-7.717H11.212a7.673,7.673,0,0,1-1.228-.54A4.72,4.72,0,0,1,7.94,30.593C5.051,22.281,2.991,13.506.129,5.165A4.037,4.037,0,0,1,7.739,2.5l4.238,13.561L24.8,16.2a2.047,2.047,0,0,1,.717,3.384,3,3,0,0,1-1.107.542ZM31.191,40.285l-2.473-6.072h-11.2l-2.474,6.071Z" transform="translate(0 0)" fill="#687288"/>
  </g>
</svg>
