<svg id="Group_79" data-name="Group 79" xmlns="http://www.w3.org/2000/svg" xmlns:xlink="http://www.w3.org/1999/xlink" width="26.315" height="32.311" viewBox="0 0 26.315 32.311">
  <defs>
    <clipPath id="clip-path">
      <rect id="Rectangle_74" data-name="Rectangle 74" width="26.315" height="32.31" fill="#687388"/>
    </clipPath>
  </defs>
  <g id="Group_78" data-name="Group 78" clip-path="url(#clip-path)">
    <path id="Path_62" data-name="Path 62" d="M12.313.028a13.161,13.161,0,0,1,11.96,20.119,17.387,17.387,0,0,1-2.183,2.622c-2.938,3.213-5.921,6.389-8.92,9.543a5.253,5.253,0,0,1-.814-.753C9.585,28.7,6.894,25.709,4.205,22.768a20.241,20.241,0,0,1-1.727-1.939A13.164,13.164,0,0,1,12.313.028m.316,8.092a5.063,5.063,0,1,0,4.906,7.563A5.076,5.076,0,0,0,12.629,8.12" transform="translate(0 -0.001)" fill="#687388"/>
  </g>
</svg>
