<svg id="Group_86" data-name="Group 86" xmlns="http://www.w3.org/2000/svg" xmlns:xlink="http://www.w3.org/1999/xlink" width="21.66" height="26.594" viewBox="0 0 21.66 26.594">
  <defs>
    <clipPath id="clip-path">
      <rect id="Rectangle_74" data-name="Rectangle 74" width="21.66" height="26.594" fill="#cdaf8c"/>
    </clipPath>
  </defs>
  <g id="Group_78" data-name="Group 78" clip-path="url(#clip-path)">
    <path id="Path_62" data-name="Path 62" d="M10.135.023a10.833,10.833,0,0,1,9.844,16.559,14.311,14.311,0,0,1-1.8,2.158c-2.418,2.644-4.874,5.259-7.342,7.854a4.323,4.323,0,0,1-.67-.62c-2.282-2.355-4.5-4.814-6.709-7.234a16.66,16.66,0,0,1-1.422-1.6A10.835,10.835,0,0,1,10.135.023m.26,6.661a4.167,4.167,0,1,0,4.038,6.225,4.178,4.178,0,0,0-4.038-6.225" transform="translate(0 -0.001)" fill="#cdaf8c"/>
  </g>
</svg>
