<svg id="Group_60" data-name="Group 60" xmlns="http://www.w3.org/2000/svg" xmlns:xlink="http://www.w3.org/1999/xlink" width="47.245" height="42.084" viewBox="0 0 47.245 42.084">
  <defs>
    <clipPath id="clip-path">
      <rect id="Rectangle_52" data-name="Rectangle 52" width="47.245" height="42.084" fill="#687388"/>
    </clipPath>
  </defs>
  <g id="Group_59" data-name="Group 59" clip-path="url(#clip-path)">
    <path id="Path_48" data-name="Path 48" d="M3.073.046A10.907,10.907,0,0,1,4.386.02L23.571,5.7,42.678.046a3.878,3.878,0,0,1,4.567,3.321v29.3a3.91,3.91,0,0,1-3.019,3.376C37.7,37.6,31.043,40.5,24.55,41.948a3.327,3.327,0,0,1-2.165-.1c-6.564-1.652-13.1-4.2-19.677-5.9A3.891,3.891,0,0,1,0,32.669l0-29.4A4.024,4.024,0,0,1,3.073.046m18.9,8.637L3.767,3.312l-.37.154L3.358,32.509l.335.284,18.279,5.495Zm3.3,29.6,18.279-5.495.335-.284L43.848,3.465l-.37-.154L25.273,8.684Z" transform="translate(0 0)" fill="#687388"/>
    <path id="Path_49" data-name="Path 49" d="M33.446,121.62a4.72,4.72,0,0,1,.979.2c2.817.674,5.659,1.835,8.482,2.555a1.654,1.654,0,0,1-.889,3.159l-9.351-2.821a1.651,1.651,0,0,1,.779-3.1" transform="translate(-25.243 -96.48)" fill="#687388"/>
    <path id="Path_50" data-name="Path 50" d="M33.1,83.4a2.441,2.441,0,0,1,.961.023l9.007,2.75a1.65,1.65,0,0,1-1.114,3.073l-9.175-2.788A1.644,1.644,0,0,1,33.1,83.4" transform="translate(-25.286 -66.132)" fill="#687388"/>
    <path id="Path_51" data-name="Path 51" d="M43.478,50.4a1.931,1.931,0,0,1-1.744.424c-2.726-1.1-6.225-1.543-8.873-2.679a1.657,1.657,0,0,1,.9-3.167c2.8,1.068,6.347,1.558,9.063,2.694a1.694,1.694,0,0,1,.656,2.727" transform="translate(-25.255 -35.669)" fill="#687388"/>
    <path id="Path_52" data-name="Path 52" d="M148.684,121.62a1.651,1.651,0,0,1,.779,3.1l-9.351,2.821a1.654,1.654,0,0,1-.889-3.159c2.823-.712,5.667-1.881,8.482-2.555a4.72,4.72,0,0,1,.979-.2" transform="translate(-109.643 -96.48)" fill="#687388"/>
    <path id="Path_53" data-name="Path 53" d="M148.205,83.424a1.649,1.649,0,0,1,1.27,3.023l-9.244,2.822a1.652,1.652,0,0,1-1.183-3.039Z" transform="translate(-109.655 -66.154)" fill="#687388"/>
    <path id="Path_54" data-name="Path 54" d="M149.876,45.4a1.7,1.7,0,0,1-.479,2.7l-9.034,2.723a1.661,1.661,0,0,1-1.074-3.136c2.683-1.156,6.278-1.593,9.048-2.709a1.755,1.755,0,0,1,1.538.424" transform="translate(-109.684 -35.645)" fill="#687388"/>
  </g>
</svg>
