<svg id="Group_62" data-name="Group 62" xmlns="http://www.w3.org/2000/svg" xmlns:xlink="http://www.w3.org/1999/xlink" width="43.864" height="40.251" viewBox="0 0 43.864 40.251">
  <defs>
    <clipPath id="clip-path">
      <rect id="Rectangle_53" data-name="Rectangle 53" width="43.864" height="40.251" fill="#687388"/>
    </clipPath>
  </defs>
  <g id="Group_61" data-name="Group 61" clip-path="url(#clip-path)">
    <path id="Path_55" data-name="Path 55" d="M94.921,53.409,105.7,57.9l.123.179-10.9,4.5L90.254,73.556,85.735,62.637,74.967,58.1l-.109-.192L85.7,53.394l4.555-10.969Zm1.353,4.5-4.125-1.681L90.3,51.97l-1.76,4.175c-1.208.726-2.726,1.07-3.963,1.716-.1.052-.206,0-.168.172l4.106,1.7L90.3,64.012l1.852-4.255,4.016-1.66Z" transform="translate(-61.957 -35.113)" fill="#687388"/>
    <path id="Path_56" data-name="Path 56" d="M20.039,9.978,12.552,12.6l-2.49,7.444-.174-.212-2.449-7.27L.211,10.153,0,9.978l7.445-2.49L10.02,0l2.539,7.524Z" transform="translate(0)" fill="#687388"/>
    <path id="Path_57" data-name="Path 57" d="M34.052,165.963c.034.22-.02.134-.121.179-1.4.635-3.207.879-4.615,1.578l-1.586,4.693-1.635-4.73-4.687-1.55c-.034-.22.02-.134.121-.179,1.378-.625,3.166-.884,4.566-1.54l1.635-4.73,1.629,4.736Z" transform="translate(-17.71 -132.162)" fill="#687388"/>
  </g>
</svg>
