<svg id="Group_43" data-name="Group 43" xmlns="http://www.w3.org/2000/svg" xmlns:xlink="http://www.w3.org/1999/xlink" width="40.395" height="46.162" viewBox="0 0 40.395 46.162">
  <defs>
    <clipPath id="clip-path">
      <rect id="Rectangle_44" data-name="Rectangle 44" width="40.395" height="46.162" fill="#687288"/>
    </clipPath>
  </defs>
  <g id="Group_42" data-name="Group 42" clip-path="url(#clip-path)">
    <path id="Path_33" data-name="Path 33" d="M34.625,17.3H40.4V46.162H0V17.3H5.771c-.2-3.863.175-7.436,2.307-10.724a14.454,14.454,0,0,1,24.059-.27c2.272,3.342,2.7,7.012,2.488,10.995m-5.771,0V13.56a9.569,9.569,0,0,0-1.676-4.276,8.679,8.679,0,0,0-13.961,0,9.5,9.5,0,0,0-1.676,4.276V17.3Zm-9.486,4.356a10.1,10.1,0,1,0,9.558,15.151,10.121,10.121,0,0,0-9.558-15.151" transform="translate(0 0)" fill="#687288"/>
    <path id="Path_34" data-name="Path 34" d="M92.392,151.621a3.024,3.024,0,0,0,4.057,4.058,4.335,4.335,0,1,1-4.057-4.058" transform="translate(-71.924 -124.217)" fill="#687288"/>
  </g>
</svg>
