<svg id="Group_150" data-name="Group 150" xmlns="http://www.w3.org/2000/svg" xmlns:xlink="http://www.w3.org/1999/xlink" width="13.347" height="13.347" viewBox="0 0 13.347 13.347">
  <defs>
    <clipPath id="clip-path">
      <rect id="Rectangle_18" data-name="Rectangle 18" width="13.347" height="13.347" fill="#687389"/>
    </clipPath>
  </defs>
  <g id="Group_15" data-name="Group 15" clip-path="url(#clip-path)">
    <path id="Path_18" data-name="Path 18" d="M13.347,13.348H0a2.878,2.878,0,0,1,1.8-2.87c.777-.353,2.554-.642,3.034-1.263.332-.43.124-1.181.172-1.7C3.579,6.05,2.763,3.478,3.825,1.6A3.343,3.343,0,0,1,9.5,1.555c1.1,1.874.275,4.493-1.159,5.957.045.464-.135,1.236.117,1.627.483.748,2.7,1.027,3.6,1.611a2.892,2.892,0,0,1,1.292,2.6" transform="translate(0 0)" fill="#687389"/>
  </g>
</svg>
