<svg xmlns="http://www.w3.org/2000/svg" xmlns:xlink="http://www.w3.org/1999/xlink" width="24.19" height="24.169" viewBox="0 0 24.19 24.169">
  <defs>
    <clipPath id="clip-path">
      <rect id="Rectangle_9" data-name="Rectangle 9" width="24.19" height="24.169" fill="#fff"/>
    </clipPath>
  </defs>
  <g id="Group_196" data-name="Group 196" transform="translate(0)">
    <g id="Group_9" data-name="Group 9" transform="translate(0)" clip-path="url(#clip-path)">
      <path id="Path_16" data-name="Path 16" d="M4.058.009A1.421,1.421,0,0,1,5.269.491L8.635,6.242a1.4,1.4,0,0,1,.009,1c-.355,1.022-1.7,2.187-1.547,3.308a4.082,4.082,0,0,0,.92,1.421,28.5,28.5,0,0,0,3.419,3.542,7.768,7.768,0,0,0,2.277,1.6c.911.1,2.1-.977,2.925-1.387a1.378,1.378,0,0,1,1.46-.1l5.656,3.338c.969.874.119,2.352-.553,3.142-4.416,5.188-11.306-.661-14.848-4C5.33,15.254-.17,9.452,0,5.073.084,3.064,1.957.262,4.058.009" transform="translate(0 0)" fill="#fff"/>
    </g>
  </g>
</svg>
