<svg id="Group_45" data-name="Group 45" xmlns="http://www.w3.org/2000/svg" xmlns:xlink="http://www.w3.org/1999/xlink" width="42.819" height="49.974" viewBox="0 0 42.819 49.974">
  <defs>
    <clipPath id="clip-path">
      <rect id="Rectangle_46" data-name="Rectangle 46" width="42.819" height="49.973" fill="#687388"/>
    </clipPath>
  </defs>
  <g id="Group_44" data-name="Group 44" clip-path="url(#clip-path)">
    <path id="Path_35" data-name="Path 35" d="M42.819,236.908H39.251c-.165-8.73-8.828-13.908-16.777-14.28-8.632-.4-18.653,4.7-18.906,14.28H0V225.142c0-4.994,5.343-9.359,10.086-9.652,7.415-.457,15.294.357,22.758,0,4.632.015,9.975,4.992,9.975,9.651Z" transform="translate(0 -186.934)" fill="#687388"/>
    <path id="Path_36" data-name="Path 36" d="M90.766.047a10.72,10.72,0,1,1-7.222,17.527A10.733,10.733,0,0,1,90.766.047" transform="translate(-70.382 -0.001)" fill="#687388"/>
    <path id="Path_37" data-name="Path 37" d="M102.544,331.638H81.134c.25-4.666,5.827-6.923,9.863-7.143,4.5-.245,11.165,1.858,11.546,7.143" transform="translate(-70.429 -281.664)" fill="#687388"/>
  </g>
</svg>
