<svg id="Group_47" data-name="Group 47" xmlns="http://www.w3.org/2000/svg" xmlns:xlink="http://www.w3.org/1999/xlink" width="65.769" height="54.608" viewBox="0 0 65.769 54.608">
  <defs>
    <clipPath id="clip-path">
      <rect id="Rectangle_47" data-name="Rectangle 47" width="65.769" height="54.608" fill="#687388"/>
    </clipPath>
  </defs>
  <g id="Group_46" data-name="Group 46" clip-path="url(#clip-path)">
    <path id="Path_38" data-name="Path 38" d="M71.791,55.412l17.455,0c7.459.279,10.885,7.985,15.721,12.5,5.82,1.17,12.507.7,15.174,7.171.958,2.327.948,7.863.722,10.458a5.045,5.045,0,0,1-3.312,4.059c-1.33.454-2.791.18-4.174.261a8.55,8.55,0,0,1-16.937-.005H71.906v-4.78l.173-.173h25.11c3.079-6.378,12.411-6.524,15.377,0h3.455V78.619c0-5.636-8.487-4.858-12.167-5.916l-32.064-.015V67.735h7.372V60.364H71.791ZM98.168,67.735c-1.4-1.572-2.753-3.321-4.2-4.839-.975-1.02-2.634-2.532-4.148-2.532H84v7.371Zm6.544,17.191c-4.942.292-4.461,8.038.875,7.331,4.333-.575,3.852-7.609-.875-7.331" transform="translate(-55.22 -42.618)" fill="#687388"/>
    <path id="Path_39" data-name="Path 39" d="M25.388,0a2.294,2.294,0,0,1,1.5,2.242c.019.437-.129.836-.119,1.156a15.819,15.819,0,0,1,.115,2.477h4.2a6.5,6.5,0,0,1,.788.364,1.947,1.947,0,0,1,.047,3.235,3.331,3.331,0,0,1-.6.318H26.885v3.974c0,.051-.166.607-.206.716a1.949,1.949,0,0,1-3.577.187A5.2,5.2,0,0,1,22.854,14v-4.2H18.419a3.323,3.323,0,0,1-.6-.318,1.98,1.98,0,0,1,.094-3.3,7.29,7.29,0,0,1,.74-.3h4.2V1.786A2.662,2.662,0,0,1,24.236,0Z" transform="translate(-13.055)" fill="#687388"/>
    <path id="Path_40" data-name="Path 40" d="M5.891,82.5a1.954,1.954,0,0,1-3.58,1.087,6.753,6.753,0,0,1-.369-1.071c-.073-.073-.7-.137-.939-.271a1.964,1.964,0,0,1,.956-3.679,1.985,1.985,0,0,1,3.718-.995,8.779,8.779,0,0,1,.258.894c.06.084.737.184,1.024.359A1.987,1.987,0,0,1,5.891,82.5" transform="translate(0 -58.881)" fill="#687388"/>
  </g>
</svg>
