<svg id="Group_69" data-name="Group 69" xmlns="http://www.w3.org/2000/svg" xmlns:xlink="http://www.w3.org/1999/xlink" width="79.994" height="28.051" viewBox="0 0 79.994 28.051">
  <defs>
    <clipPath id="clip-path">
      <rect id="Rectangle_72" data-name="Rectangle 72" width="79.994" height="28.051" fill="#687388"/>
    </clipPath>
  </defs>
  <g id="Group_68" data-name="Group 68" transform="translate(0 0)" clip-path="url(#clip-path)">
    <path id="Path_60" data-name="Path 60" d="M70.751,2.115c-2.574.394-5.283.732-7.875.977-2.545.241-5.642.154-8.074.672-2.85.608-2.833,2.472-4.265,4.482a8.182,8.182,0,0,1-3.569,2.831,15.308,15.308,0,0,1-2.125.761c-.339-.006-.328-.871-.417-1.174-.259-.882-.737-1.485-.055-2.4a3.693,3.693,0,0,1,2.724-1.231c.692-.017,1.244.525,1.994.187,1.283-.578.257-2.42-.771-2.8-.254-.093-1.121-.135-1.164-.176s.022-.21-.034-.273-.961-.759-1.115-.865c-2.667-1.845-6.835-.653-9.741-.017.633.552,1.689.416,2.452.692a16.642,16.642,0,0,0-4,6.776,9.68,9.68,0,0,1-2.184-1.548c-1.482-1.262-4.472-4.707-6.138-5.168a28.991,28.991,0,0,0-5.331-.429c-3.62-.265-7.268-.58-10.861-1.085A60.579,60.579,0,0,1,0,.107C1.284,2.665,3.37,5.19,6.212,6c3,.855,6.123.75,9.2,1.04,3.227.3,6.457.872,9.7.853l.111.212a15.605,15.605,0,0,1-2.773.214c-3.729.286-7.468.634-11.2.75-1.3.04-2.606-.082-3.9.049,1.691,1.682,3.7,3.888,6.241,4.105A16.569,16.569,0,0,0,16.784,13c3-.406,6.71-1.525,9.642-1.664a6.942,6.942,0,0,0,1.2.08L15.786,15.467l1.594,1.017c.527.2,1.017.487,1.533.707,2.168.925,2.965,1.293,5.23.286,2.494-1.108,4.7-2.94,7.215-4.037L25.171,19.3c1.642-.011,3.481,1.006,5.069.324a7.391,7.391,0,0,0,1.439-1.121c.928-.8,1.817-1.769,2.718-2.612.271.2.075.173.009.326a25.919,25.919,0,0,1-3.475,5.963l2.883,1.341L36.8,19.092,35.19,24.458l4.7,3.592V26.078a3.521,3.521,0,0,1,.161-.587h.158c-.09.2.107.49.107.587v1.76l4.359-3.382-1.585-5.471,3,4.574,2.868-1.268-1.4-2.168L45.543,16c.2-.047.254.112.373.212,1.309,1.1,3.185,3.751,5,3.694l3.91-.6L48.85,13.439c2.247,1.075,4.268,2.714,6.5,3.791,2.207,1.063,2.848,1.148,5.121.205a32.959,32.959,0,0,0,3.522-1.865L52.263,11.413a9.842,9.842,0,0,1,1.745.015c3.56.358,7.363,1.588,10.9,1.8,2.861.169,4.868-1.577,6.774-3.463.216-.213.289-.561.636-.59.029-.175-.143-.1-.264-.106-3.253-.171-6.557-.023-9.813-.321l-7.043-.532L55.036,8c3.549-.242,7.074-.735,10.613-1.067,2.672-.251,5.441-.1,8.027-.933a11.5,11.5,0,0,0,6.317-6,51.318,51.318,0,0,1-9.243,2.115M43.79,5.006c-.171-.026-1.8-.764-2.086-.9-.125-.06-.293-.106-.32-.266.512-.029,1.045.2,1.544.218s.911-.16,1.379-.1c.451.054.864.423,1.343.42.045.244-.015.169-.137.237a3.205,3.205,0,0,1-1.724.4" transform="translate(0 0)" fill="#687388"/>
  </g>
</svg>
