<svg id="Group_33" data-name="Group 33" xmlns="http://www.w3.org/2000/svg" xmlns:xlink="http://www.w3.org/1999/xlink" width="51.397" height="38.508" viewBox="0 0 51.397 38.508">
  <defs>
    <clipPath id="clip-path">
      <rect id="Rectangle_39" data-name="Rectangle 39" width="51.397" height="38.508" fill="#687288"/>
    </clipPath>
  </defs>
  <g id="Group_32" data-name="Group 32" clip-path="url(#clip-path)">
    <path id="Path_20" data-name="Path 20" d="M51.4,12.712v.2l-4.548,4.305c-2.251-2.139-4.309-4.5-6.866-6.295a24.942,24.942,0,0,0-29.9.988c-1.995,1.6-3.669,3.567-5.539,5.306L0,12.776A59.429,59.429,0,0,1,7.792,5.6,31.389,31.389,0,0,1,45.32,6.893c2.186,1.764,4,3.933,6.077,5.819" transform="translate(0 0)" fill="#687288"/>
    <path id="Path_21" data-name="Path 21" d="M61.7,94.262l-4.32-4.47.038-.137c2.294-2.192,4.3-4.662,7.053-6.305a18.644,18.644,0,0,1,18.937,0c2.756,1.661,4.819,4.129,7.082,6.369l-.234.439-4.2,4.106c-2.476-2.31-4.546-5.121-7.843-6.318a12.177,12.177,0,0,0-8.611.027c-3.221,1.187-5.3,3.959-7.7,6.251Z" transform="translate(-48.247 -67.908)" fill="#687288"/>
    <path id="Path_22" data-name="Path 22" d="M121.539,174.251l-7.429-7.578c1.329-1.172,2.523-2.736,3.861-3.867a5.658,5.658,0,0,1,6.771-.44,36.2,36.2,0,0,1,4.279,4.154c.058.075.163.118.14.24Z" transform="translate(-95.943 -135.743)" fill="#687288"/>
  </g>
</svg>
