<?xml version="1.0" encoding="UTF-8"?>
<svg id="Layer_3" data-name="Layer 3" xmlns="http://www.w3.org/2000/svg" viewBox="0 0 975.24 975.24">
  <defs>
    <style>
      .cls-1 {
        fill: #fefefe;
      }
    </style>
  </defs>
  <g id="Layer_2" data-name="Layer 2">
    <g>
      <rect class="cls-1" y="0" width="975.24" height="975.24"/>
      <g>
        <path d="M304,470.66c-3.67.56-7.52,1.04-11.21,1.39-3.62.34-8.03.22-11.5.96-4.06.87-4.03,3.52-6.07,6.38-1.35,1.9-2.97,3.1-5.08,4.03-.47.21-2.68,1.09-3.03,1.08-.48,0-.47-1.24-.59-1.67-.37-1.25-1.05-2.11-.08-3.41.83-1.12,2.53-1.72,3.88-1.75.99-.02,1.77.75,2.84.27,1.83-.82.37-3.45-1.1-3.98-.36-.13-1.6-.19-1.66-.25-.05-.05.03-.3-.05-.39-.07-.08-1.37-1.08-1.59-1.23-3.8-2.63-9.73-.93-13.87-.02.9.79,2.4.59,3.49.98-2.74,2.65-4.5,6.07-5.7,9.65-.52-.01-2.59-1.76-3.11-2.2-2.11-1.8-6.37-6.7-8.74-7.36-2.31-.64-5.22-.44-7.59-.61-5.15-.38-10.35-.83-15.47-1.54-4.92-.69-9.8-1.64-14.52-3.17,1.83,3.64,4.8,7.24,8.84,8.39,4.27,1.22,8.72,1.07,13.1,1.48,4.6.43,9.19,1.24,13.82,1.22l.16.3c-.18.25-3.36.26-3.95.31-5.31.41-10.63.9-15.94,1.07-1.84.06-3.71-.12-5.55.07,2.41,2.4,5.27,5.54,8.89,5.85,1.32.11,3.19-.14,4.53-.32,4.27-.58,9.56-2.17,13.73-2.37.51-.02,1.15.23,1.71.11l-16.86,5.77,2.27,1.45c.75.28,1.45.69,2.18,1.01,3.09,1.32,4.22,1.84,7.45.41,3.55-1.58,6.69-4.19,10.27-5.75l-8.81,8.35c2.34-.02,4.96,1.43,7.22.46.64-.28,1.49-1.11,2.05-1.6,1.32-1.15,2.59-2.52,3.87-3.72.39.29.11.25.01.46-1.27,2.91-2.94,6.04-4.95,8.49l4.1,1.91,4.25-6.31-2.29,7.64,6.69,5.12v-2.81s.19-.83.23-.84h.23c-.13.29.15.7.15.84v2.51l6.21-4.82-2.26-7.79,4.27,6.51,4.08-1.81-2-3.09-2.86-5.87c.29-.07.36.16.53.3,1.86,1.56,4.53,5.34,7.11,5.26l5.57-.86-8.5-8.35c3.2,1.53,6.08,3.86,9.26,5.4,3.14,1.51,4.05,1.63,7.29.29,1.75-.73,3.37-1.73,5.02-2.65l-16.7-5.92c.87-.06,1.62-.07,2.48.02,5.07.51,10.48,2.26,15.51,2.56,4.07.24,6.93-2.25,9.65-4.93.31-.3.41-.8.91-.84.04-.25-.2-.14-.38-.15-4.63-.24-9.34-.03-13.97-.46l-10.03-.76-.23-.3c5.05-.35,10.07-1.05,15.11-1.52,3.81-.36,7.75-.14,11.43-1.33,3.91-1.26,7.29-4.89,9-8.54-4.26,1.49-8.71,2.33-13.16,3.01ZM265.61,474.78c-.24-.04-2.57-1.09-2.97-1.28-.18-.09-.42-.15-.46-.38.73-.04,1.49.29,2.2.31.7.02,1.3-.23,1.96-.15.64.08,1.23.6,1.91.6.06.35-.02.24-.19.34-.63.35-1.73.68-2.45.56Z"/>
        <g>
          <path d="M352.82,504.83c.19,0,.49-.27.89-.8.4-.54.87-1.43,1.41-2.69.27-.58.7-1.56,1.29-2.96.59-1.4,1.28-3.02,2.06-4.88.78-1.85,1.61-3.79,2.47-5.82.86-2.03,1.68-3.98,2.47-5.85.78-1.87,1.47-3.52,2.06-4.93.59-1.42,1-2.43,1.23-3.04.5-1.22.77-2.1.8-2.64s-.04-.8-.23-.8h12.51c-.15,0-.21.26-.17.77.04.52.31,1.41.8,2.67.23.61.63,1.62,1.21,3.01.57,1.4,1.24,3.02,2.01,4.88.77,1.86,1.57,3.8,2.41,5.82.84,2.03,1.64,3.97,2.41,5.82.76,1.86,1.45,3.49,2.06,4.91.61,1.41,1.05,2.43,1.32,3.04.58,1.26,1.13,2.16,1.66,2.69s.94.8,1.21.8h-13.02c.31-.04.56-.34.77-.89.21-.56.2-1.43-.03-2.61-.04-.27-.08-.49-.12-.66-.04-.17-.12-.43-.23-.78-.15-.57-.33-.98-.52-1.23-.19-.25-.51-.39-.95-.43-.44-.04-1.16-.06-2.15-.06h-9.87c-1.03,0-1.8.03-2.29.09-.5.06-.84.2-1.03.43-.19.23-.35.61-.46,1.15-.04.19-.09.44-.15.75-.06.31-.11.55-.14.75-.27,1.22-.34,2.1-.2,2.64.13.54.32.82.54.86h-12.05ZM370.08,491.87h6.71c1.11,0,1.72-.1,1.84-.29.11-.19.06-.61-.17-1.26-.5-1.22-1-2.48-1.49-3.76-.5-1.28-.97-2.53-1.41-3.76-.44-1.22-.82-2.36-1.15-3.41-.33-1.05-.6-1.94-.83-2.67h-.12c-.54,1.42-1.09,2.91-1.66,4.48-.57,1.57-1.11,3.02-1.6,4.36-.5,1.34-1.05,2.87-1.66,4.59-.27.61-.37,1.05-.29,1.32.08.27.69.4,1.84.4Z"/>
          <path d="M409.15,504.83c.27,0,.54-.27.8-.8.27-.54.4-1.41.4-2.64v-27.53c0-1.22-.14-2.09-.4-2.61-.27-.52-.54-.79-.8-.83h11.25c-.27,0-.54.27-.8.8-.27.54-.4,1.43-.4,2.7v22.77c0,.84.11,1.35.32,1.52s.89.26,2.04.26h13.83c2.22,0,4.01-.26,5.36-.77,1.36-.52,2.24-1.02,2.67-1.52l-1.72,6.88v1.78h-32.53Z"/>
          <path d="M491.81,505.4c-4.17,0-7.86-.19-11.07-.57-3.21-.38-5.53-.77-6.94-1.15v-1.72l-1.15-7.29c.73.61,1.93,1.26,3.61,1.95,1.68.69,3.84,1.27,6.48,1.75,2.64.48,5.7.72,9.18.72,2.14,0,3.79-.14,4.93-.43,1.15-.29,1.93-.7,2.35-1.23s.63-1.17.63-1.89c0-.92-.31-1.63-.92-2.15-.61-.52-1.71-.95-3.3-1.29-1.59-.35-3.84-.71-6.74-1.09-3.48-.46-6.39-1.09-8.72-1.89-2.33-.8-4.07-1.94-5.22-3.41-1.15-1.47-1.72-3.43-1.72-5.88,0-1.99.52-3.73,1.55-5.22,1.03-1.49,2.7-2.66,4.99-3.5,2.29-.84,5.33-1.26,9.12-1.26,3.98,0,7.38.19,10.21.57,2.83.38,4.78.77,5.85,1.15v1.72l1.72,6.31c-.96-.5-2.33-1.01-4.13-1.55-1.8-.54-3.88-.98-6.25-1.35-2.37-.36-4.93-.54-7.69-.54-1.72,0-3.06.14-4.02.43-.96.29-1.63.69-2.03,1.2-.4.52-.6,1.16-.6,1.92,0,.92.35,1.66,1.06,2.21s1.86,1,3.47,1.35c1.61.34,3.77.67,6.48.98,4.17.46,7.38,1.15,9.64,2.06,2.26.92,3.82,2.09,4.67,3.53.86,1.43,1.29,3.17,1.29,5.19,0,1.76-.33,3.3-.98,4.62-.65,1.32-1.65,2.4-3.01,3.24-1.36.84-3.1,1.47-5.22,1.89-2.12.42-4.64.63-7.54.63Z"/>
          <path d="M522.22,504.83c.19,0,.49-.27.89-.8.4-.54.87-1.43,1.41-2.69.27-.58.7-1.56,1.29-2.96.59-1.4,1.28-3.02,2.06-4.88.78-1.85,1.61-3.79,2.47-5.82.86-2.03,1.68-3.98,2.47-5.85.78-1.87,1.47-3.52,2.06-4.93s1-2.43,1.23-3.04c.5-1.22.77-2.1.8-2.64s-.04-.8-.23-.8h12.51c-.15,0-.21.26-.17.77.04.52.31,1.41.8,2.67.23.61.63,1.62,1.21,3.01.57,1.4,1.24,3.02,2.01,4.88.77,1.86,1.57,3.8,2.41,5.82.84,2.03,1.64,3.97,2.41,5.82.76,1.86,1.45,3.49,2.06,4.91.61,1.41,1.05,2.43,1.32,3.04.58,1.26,1.13,2.16,1.66,2.69s.94.8,1.21.8h-13.02c.31-.04.56-.34.77-.89.21-.56.2-1.43-.03-2.61-.04-.27-.08-.49-.12-.66-.04-.17-.12-.43-.23-.78-.15-.57-.33-.98-.52-1.23-.19-.25-.51-.39-.95-.43-.44-.04-1.16-.06-2.15-.06h-9.87c-1.03,0-1.8.03-2.29.09-.5.06-.84.2-1.03.43-.19.23-.35.61-.46,1.15-.04.19-.09.44-.15.75-.06.31-.11.55-.14.75-.27,1.22-.34,2.1-.2,2.64.13.54.32.82.54.86h-12.05ZM539.48,491.87h6.71c1.11,0,1.72-.1,1.84-.29.11-.19.06-.61-.17-1.26-.5-1.22-1-2.48-1.49-3.76-.5-1.28-.97-2.53-1.41-3.76-.44-1.22-.82-2.36-1.15-3.41-.33-1.05-.6-1.94-.83-2.67h-.12c-.54,1.42-1.09,2.91-1.66,4.48-.57,1.57-1.11,3.02-1.6,4.36-.5,1.34-1.05,2.87-1.66,4.59-.27.61-.37,1.05-.29,1.32.08.27.69.4,1.84.4Z"/>
          <path d="M578.55,504.83c.27,0,.54-.27.8-.8.27-.54.4-1.41.4-2.64v-27.53c0-1.22-.14-2.09-.4-2.61-.27-.52-.54-.79-.8-.83h18.01c3.37,0,6.2.33,8.49.97,2.29.65,4.14,1.55,5.54,2.7,1.4,1.15,2.46,2.46,3.18,3.93.73,1.47,1.21,3.03,1.46,4.68.25,1.64.37,3.31.37,4.99,0,1.53-.13,3.11-.37,4.73-.25,1.62-.75,3.17-1.49,4.65-.75,1.47-1.82,2.79-3.21,3.96-1.4,1.17-3.23,2.09-5.51,2.78-2.27.69-5.09,1.03-8.46,1.03h-18.01ZM590.88,498.46h2.35c3.29,0,5.93-.28,7.92-.83,1.99-.55,3.44-1.58,4.36-3.07s1.38-3.65,1.38-6.48v-1.03c0-2.98-.42-5.19-1.26-6.62-.84-1.44-2.26-2.38-4.24-2.84-1.99-.46-4.7-.69-8.15-.69h-2.35c-1.11,0-1.77.07-1.98.2-.21.14-.32.6-.32,1.41v18.24c0,.84.11,1.34.32,1.49s.87.23,1.98.23Z"/>
          <path d="M632.24,504.83c.27,0,.54-.27.8-.8.27-.54.4-1.41.4-2.64v-27.53c0-1.22-.14-2.09-.4-2.61-.27-.52-.54-.79-.8-.83h33.5v1.72l1.15,6.65c-.96-.42-2.64-.87-5.05-1.35-2.41-.48-5.32-.72-8.72-.72h-8.49c-1.15,0-1.83.09-2.04.26-.21.17-.32.66-.32,1.46v4.25c0,.84.11,1.34.32,1.49s.87.23,1.98.23h8.26c2.22,0,4.01-.12,5.36-.37,1.36-.25,2.25-.51,2.67-.77-.15.73-.33,1.57-.52,2.52-.19.96-.35,1.87-.46,2.75-.12.88-.17,1.61-.17,2.18h-15.14c-1.11,0-1.77.07-1.98.2-.21.13-.32.64-.32,1.52v4.25c0,.88.1,1.4.29,1.55.19.15.86.23,2.01.23h15.49c2.22,0,4.01-.26,5.36-.77,1.36-.52,2.24-1.02,2.67-1.52l-1.15,6.88v1.78h-34.71Z"/>
          <path d="M683.58,504.83c.27,0,.54-.27.8-.8.27-.54.4-1.41.4-2.64v-27.53c0-1.22-.14-2.09-.4-2.61-.27-.52-.54-.79-.8-.83h33.5s0,1.72,0,1.72l1.15,6.65c-.96-.42-2.64-.87-5.05-1.35-2.41-.48-5.32-.72-8.72-.72h-8.49c-1.15,0-1.83.09-2.04.26-.21.17-.32.66-.32,1.46v4.25c0,.84.11,1.34.32,1.49s.87.23,1.98.23h8.26c2.22,0,4.01-.12,5.36-.37,1.36-.25,2.25-.51,2.67-.77-.15.73-.33,1.57-.52,2.52-.19.96-.35,1.87-.46,2.75-.12.88-.17,1.61-.17,2.18h-15.14c-1.11,0-1.77.07-1.98.2-.21.13-.32.64-.32,1.52v4.25c0,.88.1,1.4.29,1.55.19.15.86.23,2.01.23h15.49c2.22,0,4.01-.26,5.36-.77,1.36-.52,2.24-1.02,2.67-1.52l-1.15,6.88v1.78s-34.71,0-34.71,0Z"/>
          <path d="M734.92,504.83c.27,0,.54-.27.8-.8.27-.54.4-1.41.4-2.64v-27.53c0-1.22-.14-2.09-.4-2.61-.27-.52-.54-.79-.8-.83h18.01c3.37,0,6.2.33,8.49.97,2.29.65,4.14,1.55,5.54,2.7s2.46,2.46,3.18,3.93c.73,1.47,1.21,3.03,1.46,4.68.25,1.64.37,3.31.37,4.99,0,1.53-.13,3.11-.37,4.73-.25,1.62-.75,3.17-1.49,4.65-.75,1.47-1.82,2.79-3.21,3.96-1.4,1.17-3.23,2.09-5.51,2.78-2.27.69-5.09,1.03-8.46,1.03h-18.01ZM747.26,498.46h2.35c3.29,0,5.93-.28,7.92-.83,1.99-.55,3.44-1.58,4.36-3.07.92-1.49,1.38-3.65,1.38-6.48v-1.03c0-2.98-.42-5.19-1.26-6.62-.84-1.44-2.26-2.38-4.24-2.84-1.99-.46-4.7-.69-8.15-.69h-2.35c-1.11,0-1.77.07-1.98.2-.21.14-.32.6-.32,1.41v18.24c0,.84.11,1.34.32,1.49s.87.23,1.98.23Z"/>
        </g>
      </g>
    </g>
  </g>
</svg>