<svg xmlns="http://www.w3.org/2000/svg" xmlns:xlink="http://www.w3.org/1999/xlink" width="371.415" height="41.516" viewBox="0 0 371.415 41.516">
  <defs>
    <clipPath id="clip-path">
      <rect id="Rectangle_75" data-name="Rectangle 75" width="371.415" height="41.516" fill="none"/>
    </clipPath>
  </defs>
  <g id="Group_83" data-name="Group 83" transform="translate(0 -0.001)">
    <path id="Path_63" data-name="Path 63" d="M189.982,45.451v8.195h6.595V52.082h-4.9V45.451Z" transform="translate(-51.308 -12.275)" fill="#d1b38f"/>
    <g id="Group_82" data-name="Group 82" transform="translate(0 0)">
      <g id="Group_81" data-name="Group 81" clip-path="url(#clip-path)">
        <path id="Path_64" data-name="Path 64" d="M218.273,53.79a4.869,4.869,0,0,1-2.11-.431,3.217,3.217,0,0,1-1.418-1.279,3.934,3.934,0,0,1-.509-2.061V45.45h1.7V49.9a2.8,2.8,0,0,0,.279,1.346,1.628,1.628,0,0,0,.794.734,3.133,3.133,0,0,0,1.254.223,3.1,3.1,0,0,0,1.261-.23,1.668,1.668,0,0,0,.807-.752,2.882,2.882,0,0,0,.285-1.382V45.45h1.7v4.558a3.929,3.929,0,0,1-.515,2.067,3.238,3.238,0,0,1-1.424,1.285,4.84,4.84,0,0,1-2.1.431" transform="translate(-57.858 -12.275)" fill="#d1b38f"/>
        <path id="Path_65" data-name="Path 65" d="M240.433,53.645l3.576-4.473-3.3-3.722h2.121l2.1,2.51h.267l2.11-2.51h2.133l-3.3,3.722,3.576,4.473h-2.169L245.2,50.408h-.267L242.6,53.645Z" transform="translate(-64.933 -12.275)" fill="#d1b38f"/>
        <path id="Path_66" data-name="Path 66" d="M272.329,53.79a4.869,4.869,0,0,1-2.109-.431,3.217,3.217,0,0,1-1.418-1.279,3.934,3.934,0,0,1-.509-2.061V45.45h1.7V49.9a2.8,2.8,0,0,0,.279,1.346,1.628,1.628,0,0,0,.794.734,3.133,3.133,0,0,0,1.254.223,3.1,3.1,0,0,0,1.261-.23,1.668,1.668,0,0,0,.807-.752,2.882,2.882,0,0,0,.285-1.382V45.45h1.7v4.558a3.929,3.929,0,0,1-.515,2.067,3.238,3.238,0,0,1-1.424,1.285,4.84,4.84,0,0,1-2.1.431" transform="translate(-72.457 -12.275)" fill="#d1b38f"/>
        <path id="Path_67" data-name="Path 67" d="M296.148,53.645V45.45h4.861a2.789,2.789,0,0,1,1.922.642,2.251,2.251,0,0,1,.72,1.77,2.179,2.179,0,0,1-.781,1.788,3.423,3.423,0,0,1-2.212.636h-2.812v3.358Zm4.776-4.885a1.12,1.12,0,0,0,.733-.225.9.9,0,0,0,0-1.291,1.1,1.1,0,0,0-.733-.23h-3.079V48.76Zm1.018,4.885-1.782-3.879h1.818l1.818,3.879Z" transform="translate(-79.98 -12.275)" fill="#d1b38f"/>
        <path id="Path_68" data-name="Path 68" d="M324.484,53.645V50.251l-3.528-4.8h2.049l2.255,3.237h.255l2.279-3.237h1.891l-3.515,4.8v3.394Z" transform="translate(-86.68 -12.275)" fill="#d1b38f"/>
        <path id="Path_69" data-name="Path 69" d="M366.727,53.645V45.45h4.861a2.788,2.788,0,0,1,1.922.642,2.251,2.251,0,0,1,.72,1.77,2.179,2.179,0,0,1-.781,1.788,3.422,3.422,0,0,1-2.212.636h-2.812v3.358ZM371.5,48.76a1.122,1.122,0,0,0,.734-.225.9.9,0,0,0,0-1.291,1.1,1.1,0,0,0-.734-.23h-3.079V48.76Zm1.018,4.885-1.782-3.879h1.818l1.818,3.879Z" transform="translate(-99.041 -12.275)" fill="#d1b38f"/>
        <path id="Path_70" data-name="Path 70" d="M393.481,53.645V45.45h6.946v1.564h-5.249v1.5h4.788v1.552h-4.788v2.024h5.37v1.552Z" transform="translate(-106.266 -12.275)" fill="#d1b38f"/>
        <path id="Path_71" data-name="Path 71" d="M419.651,53.645V45.45h2.134l4.182,5.771h.28V45.45h1.7v8.195h-2.158L421.6,47.851h-.255v5.794Z" transform="translate(-113.334 -12.275)" fill="#d1b38f"/>
        <path id="Path_72" data-name="Path 72" d="M450.035,53.645V47h-3.358V45.45h8.4V47h-3.345v6.643Z" transform="translate(-120.633 -12.275)" fill="#d1b38f"/>
        <path id="Path_73" data-name="Path 73" d="M470.981,53.645l3.794-8.195h1.952l3.806,8.195h-1.89l-2.8-6.183h-.267l-2.788,6.183Zm1.976-1.552.679-1.528h4.158l.679,1.528Z" transform="translate(-127.197 -12.275)" fill="#d1b38f"/>
        <path id="Path_74" data-name="Path 74" d="M499.511,53.645V45.45h1.7v6.631h4.9v1.564Z" transform="translate(-134.902 -12.275)" fill="#d1b38f"/>
        <path id="Path_75" data-name="Path 75" d="M104.023,3.11c-3.785.579-7.767,1.076-11.579,1.437-3.742.355-8.3.226-11.871.988-4.191.894-4.166,3.634-6.27,6.59a12.03,12.03,0,0,1-5.247,4.162A22.507,22.507,0,0,1,65.932,17.4c-.5-.009-.482-1.281-.613-1.726-.381-1.3-1.083-2.184-.081-3.524a5.43,5.43,0,0,1,4-1.81c1.018-.026,1.829.772,2.931.275,1.886-.85.377-3.558-1.134-4.114-.373-.137-1.649-.2-1.711-.258s.032-.309-.05-.4S67.867,4.73,67.641,4.574c-3.921-2.713-10.05-.96-14.322-.025.931.812,2.483.612,3.606,1.017a24.468,24.468,0,0,0-5.885,9.963c-.539-.013-2.675-1.819-3.212-2.276-2.179-1.855-6.575-6.92-9.024-7.6-2.385-.66-5.39-.452-7.838-.631C25.643,4.635,20.28,4.171,15,3.429A89.068,89.068,0,0,1,0,.158C1.888,3.919,4.956,7.631,9.133,8.822c4.41,1.258,9,1.1,13.526,1.528,4.745.447,9.494,1.282,14.267,1.255l.164.312c-.182.256-3.474.269-4.077.315-5.483.42-10.98.932-16.461,1.1-1.9.059-3.831-.121-5.729.072,2.486,2.474,5.437,5.717,9.176,6.036a24.361,24.361,0,0,0,4.68-.334c4.409-.6,9.866-2.242,14.177-2.447a10.207,10.207,0,0,0,1.763.118L23.21,22.74l2.344,1.495c.775.29,1.5.716,2.253,1.039,3.187,1.361,4.359,1.9,7.69.42,3.667-1.629,6.912-4.323,10.607-5.935l-9.1,8.622c2.414-.017,5.118,1.48,7.453.476a10.866,10.866,0,0,0,2.116-1.648c1.365-1.183,2.671-2.6,4-3.841.4.295.111.254.013.479a38.109,38.109,0,0,1-5.11,8.768l4.239,1.972L54.1,28.071l-2.362,7.89,6.91,5.282v-2.9a5.177,5.177,0,0,1,.237-.864h.233c-.132.294.158.721.158.864v2.588l6.409-4.972-2.33-8.044,4.407,6.725,4.216-1.865-2.066-3.187-2.953-6.063c.294-.069.373.164.549.312,1.924,1.612,4.683,5.515,7.346,5.431l5.748-.884-8.781-8.623c3.3,1.58,6.274,3.991,9.558,5.573,3.245,1.564,4.187,1.688,7.529.3a48.459,48.459,0,0,0,5.179-2.742L76.841,16.78a14.471,14.471,0,0,1,2.565.022c5.234.526,10.826,2.335,16.02,2.641,4.206.248,7.158-2.319,9.96-5.091.318-.314.426-.825.936-.868.042-.258-.211-.146-.388-.155-4.783-.251-9.64-.034-14.429-.472l-10.355-.782-.232-.312c5.218-.356,10.4-1.08,15.6-1.569,3.929-.369,8-.145,11.8-1.372,4.042-1.3,7.526-5.049,9.288-8.822a75.451,75.451,0,0,1-13.59,3.11M64.384,7.36c-.251-.039-2.65-1.123-3.067-1.323-.183-.088-.431-.156-.471-.391.753-.042,1.536.3,2.27.32.718.021,1.339-.235,2.028-.153.663.079,1.271.623,1.975.617.066.358-.023.249-.2.348a4.713,4.713,0,0,1-2.534.581" transform="translate(0 0)" fill="#cdaf8b"/>
        <path id="Path_76" data-name="Path 76" d="M188.389,21.318c.106,0,.272-.15.5-.448a7.681,7.681,0,0,0,.785-1.5q.224-.482.72-1.649T191.542,15q.656-1.551,1.377-3.248t1.377-3.266q.656-1.568,1.153-2.753t.688-1.7a5.678,5.678,0,0,0,.448-1.473c.021-.3-.021-.448-.128-.448h6.979q-.128,0-.1.432a6.071,6.071,0,0,0,.448,1.489q.193.511.673,1.68t1.12,2.72q.641,1.554,1.345,3.25t1.345,3.248q.639,1.555,1.153,2.738t.736,1.7a5.276,5.276,0,0,0,.928,1.5c.3.3.522.448.673.448h-7.266q.255-.032.431-.5a2.886,2.886,0,0,0-.015-1.456c-.023-.15-.043-.272-.064-.369s-.064-.24-.128-.433a2.052,2.052,0,0,0-.288-.688.707.707,0,0,0-.529-.24c-.245-.02-.645-.032-1.2-.032h-5.506a12.228,12.228,0,0,0-1.28.048.85.85,0,0,0-.577.24,1.491,1.491,0,0,0-.255.641c-.023.106-.049.244-.081.416s-.059.308-.08.416a3.593,3.593,0,0,0-.112,1.472c.074.3.176.459.3.48Zm9.636-7.234h3.745c.618,0,.961-.053,1.025-.161s.031-.341-.1-.7q-.417-1.025-.832-2.1t-.785-2.1q-.368-1.024-.639-1.9t-.465-1.488h-.064q-.448,1.185-.928,2.5t-.895,2.433q-.417,1.121-.928,2.561a1.25,1.25,0,0,0-.161.736c.042.151.384.225,1.025.225" transform="translate(-50.878 -0.57)" fill="#d1b38f"/>
        <path id="Path_77" data-name="Path 77" d="M231.453,21.318q.224,0,.448-.448a3.516,3.516,0,0,0,.225-1.473V4.032a3.4,3.4,0,0,0-.225-1.457q-.224-.432-.448-.464h6.275c-.15,0-.3.15-.448.448a3.625,3.625,0,0,0-.225,1.505V16.772q0,.7.176.847a2.451,2.451,0,0,0,1.136.145h7.715a8.6,8.6,0,0,0,2.993-.432,3.837,3.837,0,0,0,1.489-.849l-.961,3.842v.993Z" transform="translate(-62.508 -0.57)" fill="#d1b38f"/>
        <path id="Path_78" data-name="Path 78" d="M290.693,21.519a52.747,52.747,0,0,1-6.179-.32,30.251,30.251,0,0,1-3.872-.641V19.6L280,15.533a7.889,7.889,0,0,0,2.016,1.089,18.411,18.411,0,0,0,3.618.976,28.975,28.975,0,0,0,5.122.4,12.082,12.082,0,0,0,2.752-.239,2.363,2.363,0,0,0,1.313-.688,1.662,1.662,0,0,0,.353-1.057,1.491,1.491,0,0,0-.512-1.2,4.444,4.444,0,0,0-1.841-.719q-1.329-.289-3.761-.609a25.352,25.352,0,0,1-4.866-1.057,6.075,6.075,0,0,1-2.912-1.9,5.2,5.2,0,0,1-.961-3.281,5,5,0,0,1,.864-2.912,5.6,5.6,0,0,1,2.785-1.953,15.14,15.14,0,0,1,5.09-.7,43.438,43.438,0,0,1,5.7.32,18.827,18.827,0,0,1,3.264.64v.96l.961,3.522a13.781,13.781,0,0,0-2.305-.864,26.173,26.173,0,0,0-3.49-.753,28.339,28.339,0,0,0-4.289-.3,8.146,8.146,0,0,0-2.242.24,2.19,2.19,0,0,0-1.135.672,1.691,1.691,0,0,0-.337,1.072,1.488,1.488,0,0,0,.592,1.233,4.887,4.887,0,0,0,1.937.752q1.345.288,3.618.545a20.957,20.957,0,0,1,5.377,1.153,5.167,5.167,0,0,1,2.608,1.969,5.53,5.53,0,0,1,.72,2.9A5.753,5.753,0,0,1,299.5,18.3a4.4,4.4,0,0,1-1.68,1.81,8.758,8.758,0,0,1-2.912,1.055,21.991,21.991,0,0,1-4.21.352" transform="translate(-75.62 -0.452)" fill="#d1b38f"/>
        <path id="Path_79" data-name="Path 79" d="M317.892,21.318c.106,0,.272-.15.5-.448a7.684,7.684,0,0,0,.785-1.5q.224-.482.72-1.649T321.045,15q.656-1.551,1.377-3.248T323.8,8.481q.656-1.568,1.153-2.753t.688-1.7a5.677,5.677,0,0,0,.448-1.473c.021-.3-.021-.448-.128-.448h6.979q-.128,0-.1.432a6.071,6.071,0,0,0,.448,1.489q.193.511.673,1.68t1.12,2.72q.641,1.554,1.345,3.25t1.345,3.248q.639,1.555,1.153,2.738t.736,1.7a5.276,5.276,0,0,0,.928,1.5c.3.3.522.448.673.448h-7.266q.255-.032.431-.5a2.886,2.886,0,0,0-.015-1.456c-.023-.15-.043-.272-.064-.369s-.064-.24-.128-.433a2.052,2.052,0,0,0-.288-.688.707.707,0,0,0-.529-.24c-.245-.02-.645-.032-1.2-.032H326.7a12.227,12.227,0,0,0-1.28.048.85.85,0,0,0-.577.24,1.492,1.492,0,0,0-.255.641c-.023.106-.049.244-.081.416s-.059.308-.08.416a3.594,3.594,0,0,0-.112,1.472c.074.3.176.459.3.48Zm9.636-7.234h3.745c.618,0,.961-.053,1.025-.161s.031-.341-.1-.7q-.417-1.025-.832-2.1t-.785-2.1q-.368-1.024-.639-1.9t-.465-1.488h-.064q-.448,1.185-.928,2.5t-.895,2.433q-.417,1.121-.928,2.561a1.25,1.25,0,0,0-.161.736c.042.151.384.225,1.025.225" transform="translate(-85.852 -0.57)" fill="#d1b38f"/>
        <path id="Path_80" data-name="Path 80" d="M360.956,21.318q.224,0,.448-.448a3.514,3.514,0,0,0,.225-1.473V4.032a3.4,3.4,0,0,0-.225-1.456c-.15-.288-.3-.444-.448-.464h10.052a17.638,17.638,0,0,1,4.738.544,8.443,8.443,0,0,1,3.089,1.5,6.643,6.643,0,0,1,1.776,2.193,8.865,8.865,0,0,1,.817,2.61,18.708,18.708,0,0,1,.208,2.785,17.564,17.564,0,0,1-.208,2.641,8.609,8.609,0,0,1-.832,2.593,6.992,6.992,0,0,1-1.793,2.207,8.629,8.629,0,0,1-3.074,1.553,16.535,16.535,0,0,1-4.721.577Zm6.883-3.553h1.312a16.968,16.968,0,0,0,4.418-.464A3.962,3.962,0,0,0,376,15.588a6.957,6.957,0,0,0,.768-3.617v-.577a7.527,7.527,0,0,0-.7-3.7A3.487,3.487,0,0,0,373.7,6.113a21.155,21.155,0,0,0-4.547-.384h-1.312a2.983,2.983,0,0,0-1.1.112c-.118.076-.176.336-.176.785v10.18q0,.7.176.832a2.619,2.619,0,0,0,1.1.127" transform="translate(-97.483 -0.571)" fill="#d1b38f"/>
        <path id="Path_81" data-name="Path 81" d="M402,21.318c.15,0,.3-.15.448-.448a3.515,3.515,0,0,0,.225-1.473V4.032a3.4,3.4,0,0,0-.225-1.457c-.15-.288-.3-.443-.448-.464h18.7v.96l.639,3.714a15.331,15.331,0,0,0-2.817-.753,25.443,25.443,0,0,0-4.866-.4h-4.738a2.451,2.451,0,0,0-1.136.145q-.176.143-.176.816V8.961c0,.469.058.747.176.832a2.614,2.614,0,0,0,1.1.128H413.5a17.21,17.21,0,0,0,2.993-.208,4.838,4.838,0,0,0,1.488-.432q-.127.609-.288,1.409t-.257,1.536a9.714,9.714,0,0,0-.1,1.216h-8.45a2.936,2.936,0,0,0-1.1.113c-.118.074-.176.358-.176.847v2.369c0,.491.053.78.161.864a2.6,2.6,0,0,0,1.12.128h8.643a8.609,8.609,0,0,0,2.994-.432,3.839,3.839,0,0,0,1.488-.849l-.641,3.842v.993Z" transform="translate(-108.568 -0.57)" fill="#d1b38f"/>
        <path id="Path_82" data-name="Path 82" d="M441.254,21.318c.15,0,.3-.15.448-.448a3.516,3.516,0,0,0,.225-1.473V4.032a3.4,3.4,0,0,0-.225-1.457q-.224-.432-.448-.464h18.7v.96l.639,3.714a15.331,15.331,0,0,0-2.817-.753,25.443,25.443,0,0,0-4.866-.4h-4.738a2.449,2.449,0,0,0-1.136.145q-.176.143-.176.816V8.961c0,.469.058.747.176.832a2.611,2.611,0,0,0,1.1.128h4.61a17.21,17.21,0,0,0,2.993-.208,4.837,4.837,0,0,0,1.488-.432q-.128.609-.288,1.409t-.257,1.537a9.715,9.715,0,0,0-.1,1.216h-8.45a2.933,2.933,0,0,0-1.1.113c-.118.074-.176.358-.176.847v2.369c0,.491.053.78.161.864a2.6,2.6,0,0,0,1.12.128h8.643a8.609,8.609,0,0,0,2.994-.432,3.839,3.839,0,0,0,1.488-.849l-.641,3.842v.993Z" transform="translate(-119.169 -0.57)" fill="#d1b38f"/>
        <path id="Path_83" data-name="Path 83" d="M480.5,21.318c.15,0,.3-.149.448-.448a3.515,3.515,0,0,0,.225-1.473V4.032a3.4,3.4,0,0,0-.225-1.456c-.15-.288-.3-.444-.448-.464h10.052a17.638,17.638,0,0,1,4.738.544,8.443,8.443,0,0,1,3.089,1.5,6.642,6.642,0,0,1,1.776,2.193,8.863,8.863,0,0,1,.817,2.61,18.7,18.7,0,0,1,.208,2.785,17.56,17.56,0,0,1-.208,2.641,8.608,8.608,0,0,1-.832,2.593,6.993,6.993,0,0,1-1.793,2.207,8.629,8.629,0,0,1-3.074,1.553,16.534,16.534,0,0,1-4.721.577Zm6.883-3.553H488.7a16.968,16.968,0,0,0,4.418-.464,3.962,3.962,0,0,0,2.432-1.713,6.957,6.957,0,0,0,.768-3.617v-.577a7.528,7.528,0,0,0-.7-3.7,3.487,3.487,0,0,0-2.368-1.585,21.155,21.155,0,0,0-4.547-.384h-1.312a2.983,2.983,0,0,0-1.1.112c-.118.076-.176.336-.176.785v10.18q0,.7.176.832a2.619,2.619,0,0,0,1.1.127" transform="translate(-129.769 -0.571)" fill="#d1b38f"/>
      </g>
    </g>
  </g>
</svg>
