<svg xmlns="http://www.w3.org/2000/svg" xmlns:xlink="http://www.w3.org/1999/xlink" width="296.292" height="20.808" viewBox="0 0 296.292 20.808">
  <defs>
    <clipPath id="clip-path">
      <rect id="Rectangle_2" data-name="Rectangle 2" width="296.292" height="20.808" fill="none"/>
    </clipPath>
  </defs>
  <g id="Group_2" data-name="Group 2" transform="translate(0 0)">
    <g id="Group_1" data-name="Group 1" transform="translate(0 0)" clip-path="url(#clip-path)">
      <path id="Path_1" data-name="Path 1" d="M52.484,1.569c-1.909.292-3.919.543-5.842.725a56.756,56.756,0,0,0-5.989.5c-2.114.45-2.1,1.834-3.164,3.325a6.072,6.072,0,0,1-2.647,2.1,11.413,11.413,0,0,1-1.577.564c-.251,0-.243-.647-.309-.871-.192-.655-.546-1.1-.041-1.778a2.742,2.742,0,0,1,2.02-.914c.513-.012.923.39,1.479.14.952-.429.191-1.8-.571-2.075-.188-.07-.832-.1-.863-.131S35,3,34.954,2.949s-.712-.563-.827-.642c-1.978-1.369-5.07-.485-7.226-.013.47.41,1.253.309,1.82.513a12.345,12.345,0,0,0-2.97,5.027,7.185,7.185,0,0,1-1.62-1.148c-1.1-.937-3.317-3.492-4.554-3.834a21.5,21.5,0,0,0-3.954-.319c-2.685-.2-5.391-.43-8.057-.8A45.1,45.1,0,0,1,0,.08,8.073,8.073,0,0,0,4.608,4.452a37.206,37.206,0,0,0,6.825.77c2.394.226,4.79.647,7.2.633l.083.158a11.558,11.558,0,0,1-2.057.158c-2.766.213-5.54.471-8.306.557-.961.029-1.934-.062-2.891.036C6.714,8.012,8.2,9.649,10.089,9.809a12.261,12.261,0,0,0,2.361-.168c2.224-.3,4.978-1.132,7.153-1.234a5.189,5.189,0,0,0,.889.059l-8.782,3.007,1.182.754c.391.146.754.362,1.137.524,1.608.687,2.2.959,3.88.213,1.85-.823,3.488-2.182,5.352-3l-4.589,4.35c1.217-.008,2.582.747,3.76.241a5.478,5.478,0,0,0,1.068-.832c.689-.6,1.347-1.312,2.016-1.937.2.149.056.128.007.241a19.229,19.229,0,0,1-2.578,4.424l2.138.995L27.3,14.163,26.1,18.144l3.487,2.665V19.345a2.628,2.628,0,0,1,.119-.436h.118c-.067.148.079.364.079.436v1.306l3.234-2.509-1.176-4.058,2.224,3.393,2.127-.941-1.042-1.608-1.49-3.059c.148-.035.188.082.277.157.97.813,2.362,2.782,3.707,2.74l2.9-.447-4.43-4.351c1.667.8,3.165,2.014,4.822,2.813,1.638.788,2.113.851,3.8.151a24.323,24.323,0,0,0,2.613-1.382l-8.7-3.085a7.344,7.344,0,0,1,1.294.011c2.641.266,5.462,1.179,8.083,1.332,2.123.125,3.612-1.169,5.025-2.569.161-.158.215-.416.472-.438.021-.13-.107-.073-.2-.078-2.413-.127-4.864-.017-7.28-.238l-5.224-.4-.118-.157c2.633-.18,5.248-.545,7.873-.792,1.983-.185,4.037-.072,5.955-.691A8.536,8.536,0,0,0,59.341,0a38.1,38.1,0,0,1-6.857,1.569m-20,2.145c-.127-.02-1.337-.567-1.548-.668-.092-.044-.217-.078-.237-.2.38-.022.775.15,1.145.161s.676-.118,1.023-.077.642.313,1,.311c.033.181-.012.126-.1.176a2.383,2.383,0,0,1-1.279.293" transform="translate(0 0)" fill="#cdaf8b"/>
      <path id="Path_2" data-name="Path 2" d="M142.212,20.558c.1,0,.254-.139.463-.418a7.175,7.175,0,0,0,.733-1.4q.21-.45.673-1.54t1.076-2.541q.611-1.449,1.285-3.033t1.285-3.048Q148.339,7.11,148.8,6t.643-1.584a5.284,5.284,0,0,0,.419-1.375c.019-.279-.02-.418-.12-.418h6.516c-.08,0-.11.134-.09.4a5.709,5.709,0,0,0,.419,1.389q.18.478.628,1.569t1.045,2.54q.6,1.45,1.256,3.034t1.255,3.033q.6,1.451,1.076,2.556t.687,1.584a4.948,4.948,0,0,0,.867,1.4c.279.279.488.418.628.418h-6.784c.159-.019.293-.174.4-.462a2.7,2.7,0,0,0-.014-1.36c-.021-.14-.041-.254-.06-.344s-.06-.224-.12-.4a1.888,1.888,0,0,0-.268-.641.66.66,0,0,0-.494-.225c-.228-.019-.6-.03-1.119-.03h-5.14a11.422,11.422,0,0,0-1.2.044.8.8,0,0,0-.539.224,1.4,1.4,0,0,0-.238.6c-.021.1-.045.228-.076.388s-.055.288-.075.388a3.379,3.379,0,0,0-.1,1.374c.069.279.164.429.283.448Zm9-6.754h3.5c.577,0,.9-.049.957-.15s.028-.318-.09-.657q-.39-.956-.777-1.957t-.733-1.958q-.344-.957-.6-1.778c-.171-.547-.314-1.011-.434-1.389h-.06q-.418,1.106-.867,2.332t-.836,2.27q-.389,1.047-.867,2.391a1.168,1.168,0,0,0-.15.687c.039.141.358.21.957.21" transform="translate(-64.295 -1.188)" fill="#d1b38f"/>
      <path id="Path_3" data-name="Path 3" d="M195.776,20.557q.21,0,.419-.419a3.291,3.291,0,0,0,.21-1.375V4.419a3.182,3.182,0,0,0-.21-1.36q-.21-.4-.419-.433h5.859c-.14,0-.281.14-.419.419a3.381,3.381,0,0,0-.21,1.4V16.314c0,.438.055.7.164.792a2.292,2.292,0,0,0,1.061.134h7.2a8.025,8.025,0,0,0,2.8-.4,3.58,3.58,0,0,0,1.389-.792l-.9,3.586v.927Z" transform="translate(-88.511 -1.187)" fill="#d1b38f"/>
      <path id="Path_4" data-name="Path 4" d="M266.142,20.609a49.3,49.3,0,0,1-5.769-.3,28.261,28.261,0,0,1-3.614-.6v-.9l-.6-3.8a7.4,7.4,0,0,0,1.883,1.017,17.244,17.244,0,0,0,3.378.911,27.118,27.118,0,0,0,4.781.373,11.262,11.262,0,0,0,2.57-.223A2.2,2.2,0,0,0,270,16.456a1.552,1.552,0,0,0,.33-.987,1.391,1.391,0,0,0-.479-1.121,4.143,4.143,0,0,0-1.718-.671q-1.242-.27-3.512-.569a23.63,23.63,0,0,1-4.543-.987,5.672,5.672,0,0,1-2.72-1.777,4.856,4.856,0,0,1-.9-3.064,4.666,4.666,0,0,1,.807-2.719,5.229,5.229,0,0,1,2.6-1.823,14.116,14.116,0,0,1,4.752-.658,40.472,40.472,0,0,1,5.32.3,17.5,17.5,0,0,1,3.048.6v.9l.9,3.288a12.852,12.852,0,0,0-2.153-.807,24.6,24.6,0,0,0-3.258-.7,26.514,26.514,0,0,0-4-.283,7.616,7.616,0,0,0-2.092.224,2.044,2.044,0,0,0-1.06.627,1.578,1.578,0,0,0-.314,1,1.389,1.389,0,0,0,.553,1.151,4.563,4.563,0,0,0,1.808.7q1.256.269,3.378.508a19.6,19.6,0,0,1,5.02,1.076A4.827,4.827,0,0,1,274.2,12.5a5.165,5.165,0,0,1,.672,2.7,5.371,5.371,0,0,1-.508,2.405,4.108,4.108,0,0,1-1.568,1.69,8.184,8.184,0,0,1-2.719.985,20.493,20.493,0,0,1-3.931.329" transform="translate(-115.811 -0.941)" fill="#d1b38f"/>
      <path id="Path_5" data-name="Path 5" d="M303.288,20.558c.1,0,.254-.139.463-.418a7.176,7.176,0,0,0,.733-1.4q.21-.45.673-1.54t1.076-2.541q.611-1.449,1.285-3.033T308.8,8.574L309.878,6q.464-1.105.643-1.584a5.284,5.284,0,0,0,.419-1.375c.019-.279-.02-.418-.12-.418h6.516c-.08,0-.11.134-.09.4a5.709,5.709,0,0,0,.419,1.389q.18.478.628,1.569t1.045,2.54q.6,1.45,1.256,3.034t1.255,3.033q.6,1.451,1.076,2.556t.687,1.584a4.948,4.948,0,0,0,.867,1.4c.279.279.488.418.628.418h-6.784c.159-.019.293-.174.4-.462a2.7,2.7,0,0,0-.014-1.36c-.021-.14-.041-.254-.06-.344s-.06-.224-.12-.4a1.888,1.888,0,0,0-.268-.641.66.66,0,0,0-.494-.225c-.228-.019-.6-.03-1.12-.03h-5.14a11.421,11.421,0,0,0-1.2.044.794.794,0,0,0-.539.224,1.4,1.4,0,0,0-.238.6c-.021.1-.045.228-.076.388s-.055.288-.075.388a3.378,3.378,0,0,0-.1,1.374c.069.279.164.429.283.448Zm9-6.754h3.5c.578,0,.9-.049.957-.15s.028-.318-.09-.657q-.39-.956-.777-1.957t-.733-1.958q-.344-.957-.6-1.778c-.171-.547-.315-1.011-.434-1.389h-.06q-.418,1.106-.867,2.332t-.836,2.27q-.389,1.047-.867,2.391a1.167,1.167,0,0,0-.15.687c.039.141.358.21.957.21" transform="translate(-137.118 -1.188)" fill="#d1b38f"/>
      <path id="Path_6" data-name="Path 6" d="M356.852,20.558q.21,0,.419-.418a3.287,3.287,0,0,0,.21-1.376V4.42a3.17,3.17,0,0,0-.21-1.359q-.21-.4-.419-.433h9.385a16.494,16.494,0,0,1,4.423.507,7.878,7.878,0,0,1,2.884,1.4A6.192,6.192,0,0,1,375.2,6.587a8.268,8.268,0,0,1,.763,2.436,17.464,17.464,0,0,1,.194,2.6,16.414,16.414,0,0,1-.194,2.466,8.04,8.04,0,0,1-.777,2.421,6.538,6.538,0,0,1-1.674,2.061,8.072,8.072,0,0,1-2.869,1.45,15.444,15.444,0,0,1-4.408.538Zm6.426-3.317H364.5a15.855,15.855,0,0,0,4.125-.433,3.7,3.7,0,0,0,2.271-1.6,6.5,6.5,0,0,0,.717-3.377v-.539a7.028,7.028,0,0,0-.657-3.451,3.256,3.256,0,0,0-2.211-1.479A19.727,19.727,0,0,0,364.5,6h-1.226a2.776,2.776,0,0,0-1.031.1q-.164.105-.164.733v9.5q0,.657.164.777a2.437,2.437,0,0,0,1.031.119" transform="translate(-161.335 -1.188)" fill="#d1b38f"/>
      <path id="Path_7" data-name="Path 7" d="M407.908,20.557q.21,0,.419-.419a3.291,3.291,0,0,0,.21-1.375V4.419a3.182,3.182,0,0,0-.21-1.36q-.21-.4-.419-.433h17.454v.9l.6,3.467a14.3,14.3,0,0,0-2.629-.7,23.81,23.81,0,0,0-4.543-.373h-4.424a2.289,2.289,0,0,0-1.061.135q-.164.134-.164.762V9.022q0,.657.164.777a2.443,2.443,0,0,0,1.031.119h4.3a16.155,16.155,0,0,0,2.795-.194,4.535,4.535,0,0,0,1.39-.4q-.12.568-.269,1.315t-.239,1.434a9.02,9.02,0,0,0-.09,1.136h-7.89a2.745,2.745,0,0,0-1.031.105c-.11.069-.164.334-.164.792v2.212c0,.457.049.728.15.807a2.432,2.432,0,0,0,1.045.119H422.4a8.022,8.022,0,0,0,2.795-.4,3.583,3.583,0,0,0,1.39-.792l-.6,3.586v.927Z" transform="translate(-184.418 -1.187)" fill="#d1b38f"/>
      <path id="Path_8" data-name="Path 8" d="M456.727,20.557q.21,0,.419-.419a3.291,3.291,0,0,0,.21-1.375V4.419a3.182,3.182,0,0,0-.21-1.36q-.21-.4-.419-.433h17.454v.9l.6,3.467a14.3,14.3,0,0,0-2.629-.7,23.809,23.809,0,0,0-4.543-.373h-4.424a2.289,2.289,0,0,0-1.061.135q-.164.134-.164.762V9.022q0,.657.164.777a2.443,2.443,0,0,0,1.031.119h4.3a16.155,16.155,0,0,0,2.795-.194,4.535,4.535,0,0,0,1.39-.4q-.12.568-.269,1.315t-.239,1.434a9.025,9.025,0,0,0-.09,1.136h-7.89a2.745,2.745,0,0,0-1.031.105c-.11.069-.164.334-.164.792v2.212c0,.457.049.728.15.807a2.432,2.432,0,0,0,1.045.119h8.069a8.022,8.022,0,0,0,2.795-.4,3.583,3.583,0,0,0,1.39-.792l-.6,3.586v.927Z" transform="translate(-206.489 -1.187)" fill="#d1b38f"/>
      <path id="Path_9" data-name="Path 9" d="M505.546,20.558q.21,0,.419-.418a3.287,3.287,0,0,0,.21-1.376V4.42a3.17,3.17,0,0,0-.21-1.359q-.21-.4-.419-.433h9.385a16.494,16.494,0,0,1,4.423.507,7.878,7.878,0,0,1,2.884,1.4A6.191,6.191,0,0,1,523.9,6.587a8.27,8.27,0,0,1,.763,2.436,17.459,17.459,0,0,1,.194,2.6,16.41,16.41,0,0,1-.194,2.466,8.04,8.04,0,0,1-.777,2.421,6.538,6.538,0,0,1-1.674,2.061,8.072,8.072,0,0,1-2.869,1.45,15.444,15.444,0,0,1-4.408.538Zm6.426-3.317H513.2a15.856,15.856,0,0,0,4.125-.433,3.7,3.7,0,0,0,2.271-1.6,6.5,6.5,0,0,0,.717-3.377v-.539a7.027,7.027,0,0,0-.657-3.451,3.256,3.256,0,0,0-2.211-1.479A19.728,19.728,0,0,0,513.2,6h-1.226a2.776,2.776,0,0,0-1.031.1q-.164.105-.164.733v9.5q0,.657.164.777a2.437,2.437,0,0,0,1.031.119" transform="translate(-228.56 -1.188)" fill="#d1b38f"/>
    </g>
  </g>
</svg>
