<?xml version="1.0" encoding="UTF-8"?>
<svg id="Layer_2" data-name="Layer 2" xmlns="http://www.w3.org/2000/svg" viewBox="0 0 463.64 70.29">
  <defs>
    <style>
      .cls-1 {
        fill: #cdaf8b;
      }
    </style>
  </defs>
  <g id="Layer_2-2" data-name="Layer 2">
    <g>
      <path class="cls-1" d="M248.65,0h-9.28l-.38.38v44.02h-9.28c-4.03,0-8.01-5.77-8.01-9.51V15.73h-9.28l-.38.38v19.53c0,1.44-1.6,4.91-2.55,6.08-3.82,4.7-13.36,4.37-17.55.27-1.32-1.29-3.04-4.79-3.04-6.61v-14.59h-9.66v15.09c0,3.96-4.87,8.5-8.77,8.5h-11.82v-23.59h-9.66v23.59h-14.75c.28-11.13.61-23.58-12.26-27.21-.99-.28-3.5-.95-4.39-.95h-18.94v9.39h17.16c1.53,0,4.22.75,5.55,1.56,1.61.98,3.73,4.34,3.73,6.17v11.04h-38.01l-.38.38v9.26h83.27c.98,0,3.79-.88,4.84-1.26,3.71-1.35,6.72-3.91,8.64-7.36,4.03,8.08,14.23,10.29,22.56,9.07,4.91-.72,9.95-2.88,12.53-7.29,1.58,2.82,4.35,5.04,7.45,6.02.65.21,2.97.83,3.49.83h19.2V0ZM270.77.25h-9.66v53.78h9.66V.25ZM47.54,44.4c.27-11.08.56-23.59-12.26-27.21-.99-.28-3.5-.95-4.39-.95H11.95v9.39h17.16c1.6,0,4.53.81,5.85,1.78,1.49,1.09,3.43,4.39,3.43,6.22v10.78H.38l-.38.38v9.26h78.56V16.24h-9.41v28.16h-21.61ZM57.9,60.95c-3.77.64-5.27,5.82-2.2,8.16,2.47,1.89,7.08,1.57,8.29-1.58,1.66-4.32-1.96-7.29-6.09-6.58ZM72.9,60.95c-4.85.82-5.36,8.2.05,9.21,3.46.65,6.47-1.1,6.39-4.83-.07-3.44-3.37-4.9-6.44-4.38Z"/>
      <path class="cls-1" d="M248.65,0v54.04h-19.2c-.52,0-2.84-.63-3.49-.83-3.1-.98-5.87-3.2-7.45-6.02-2.57,4.41-7.62,6.57-12.53,7.29-8.33,1.22-18.53-.99-22.56-9.07-1.92,3.45-4.93,6.02-8.64,7.36-1.05.38-3.86,1.26-4.84,1.26h-83.27v-9.26l.38-.38h38.01v-11.04c0-1.84-2.12-5.19-3.73-6.17-1.33-.81-4.02-1.56-5.55-1.56h-17.16v-9.39h18.94c.89,0,3.4.67,4.39.95,12.87,3.64,12.54,16.08,12.26,27.21h14.75v-23.59h9.66v23.59h11.82c3.9,0,8.77-4.54,8.77-8.5v-15.09h9.66v14.59c0,1.82,1.72,5.31,3.04,6.61,4.18,4.1,13.73,4.43,17.55-.27.95-1.17,2.55-4.64,2.55-6.08v-19.53l.38-.38h9.28v19.15c0,3.75,3.97,9.51,8.01,9.51h9.28V.38l.38-.38h9.28Z"/>
      <path class="cls-1" d="M47.54,44.4h21.61v-28.16h9.41v37.8H0v-9.26l.38-.38h38.01v-10.78c0-1.82-1.94-5.12-3.43-6.22-1.32-.97-4.24-1.78-5.85-1.78H11.95v-9.39h18.94c.89,0,3.4.67,4.39.95,12.83,3.62,12.53,16.13,12.26,27.21Z"/>
      <rect class="cls-1" x="261.11" y=".25" width="9.66" height="53.78"/>
      <path class="cls-1" d="M444.21,6.5c-5.41.83-11.1,1.54-16.55,2.05-5.35.51-11.86.32-16.97,1.41-5.99,1.28-5.95,5.19-8.96,9.42-1.99,2.8-4.38,4.57-7.5,5.95-.69.31-3.96,1.61-4.47,1.6-.71-.01-.69-1.83-.88-2.47-.54-1.85-1.55-3.12-.12-5.04,1.23-1.65,3.73-2.54,5.72-2.59,1.45-.04,2.61,1.1,4.19.39,2.7-1.22.54-5.09-1.62-5.88-.53-.2-2.36-.28-2.45-.37-.07-.07.05-.44-.07-.57-.1-.11-2.02-1.6-2.34-1.82-5.61-3.88-14.37-1.37-20.47-.04,1.33,1.16,3.55.87,5.15,1.45-4.04,3.92-6.64,8.95-8.41,14.24-.77-.02-3.82-2.6-4.59-3.25-3.12-2.65-9.4-9.89-12.9-10.86-3.41-.94-7.7-.65-11.2-.9-7.61-.56-15.27-1.22-22.83-2.28-7.26-1.02-14.47-2.43-21.44-4.68,2.7,5.38,7.08,10.68,13.06,12.39,6.3,1.8,12.87,1.58,19.34,2.18,6.78.64,13.57,1.83,20.39,1.79l.23.45c-.26.37-4.97.38-5.83.45-7.84.6-15.7,1.33-23.53,1.58-2.72.08-5.48-.17-8.19.1,3.55,3.54,7.77,8.17,13.12,8.63,1.95.17,4.71-.21,6.69-.48,6.3-.85,14.1-3.21,20.27-3.5.75-.04,1.69.35,2.52.17l-24.88,8.52,3.35,2.14c1.11.41,2.14,1.02,3.22,1.49,4.55,1.94,6.23,2.72,10.99.6,5.24-2.33,9.88-6.18,15.16-8.48l-13,12.32c3.45-.02,7.32,2.12,10.65.68.95-.41,2.2-1.64,3.02-2.36,1.95-1.69,3.82-3.72,5.71-5.49.57.42.16.36.02.68-1.87,4.3-4.34,8.92-7.3,12.53l6.06,2.82,6.27-9.32-3.38,11.28,9.88,7.55v-4.15c0-.06.28-1.22.34-1.23h.33c-.19.42.23,1.03.23,1.23v3.7l9.16-7.11-3.33-11.5,6.3,9.61,6.03-2.67-2.95-4.56-4.22-8.67c.42-.1.53.23.79.45,2.75,2.3,6.69,7.88,10.5,7.76l8.22-1.26-12.55-12.33c4.72,2.26,8.97,5.7,13.66,7.97,4.64,2.24,5.98,2.41,10.76.43,2.58-1.07,4.98-2.55,7.4-3.92l-24.66-8.74c1.29-.09,2.39-.1,3.67.03,7.48.75,15.47,3.34,22.9,3.78,6.01.35,10.23-3.31,14.24-7.28.45-.45.61-1.18,1.34-1.24.06-.37-.3-.21-.55-.22-6.84-.36-13.78-.05-20.62-.67l-14.8-1.12-.33-.45c7.46-.51,14.87-1.54,22.31-2.24,5.62-.53,11.44-.21,16.87-1.96,5.78-1.86,10.76-7.22,13.28-12.61-6.28,2.2-12.85,3.44-19.43,4.44ZM387.55,12.58c-.36-.06-3.79-1.6-4.38-1.89-.26-.13-.62-.22-.67-.56,1.08-.06,2.2.43,3.24.46,1.03.03,1.92-.34,2.9-.22.95.11,1.82.89,2.82.88.09.51-.03.36-.29.5-.94.52-2.55,1-3.62.83Z"/>
    </g>
  </g>
</svg>