<?xml version="1.0" encoding="UTF-8"?>
<svg id="Layer_2" data-name="Layer 2" xmlns="http://www.w3.org/2000/svg" viewBox="0 0 509.85 102.97">
  <defs>
    <style>
      .cls-1 {
        fill: #cdaf8b;
      }
    </style>
  </defs>
  <g id="Layer_2-2" data-name="Layer 2">
    <g>
      <path class="cls-1" d="M200.94,0h-7.17l-.29.29v33.99h-7.17c-3.12,0-6.18-4.45-6.18-7.35v-14.79h-7.17l-.29.29v15.08c0,1.11-1.23,3.79-1.97,4.7-2.95,3.63-10.32,3.37-13.55.21-1.02-1-2.35-3.7-2.35-5.1v-11.26h-7.46v11.66c0,3.06-3.76,6.56-6.77,6.56h-9.13v-18.22h-7.46v18.22h-11.39c.21-8.59.47-18.21-9.47-21.01-.76-.22-2.7-.73-3.39-.73h-14.63v7.25h13.25c1.18,0,3.26.58,4.29,1.21,1.24.76,2.88,3.35,2.88,4.77v8.52h-29.35l-.29.29v7.15h64.3c.76,0,2.92-.68,3.73-.98,2.86-1.04,5.19-3.02,6.67-5.69,3.12,6.24,10.99,7.94,17.42,7,3.79-.56,7.69-2.22,9.67-5.63,1.22,2.17,3.36,3.89,5.75,4.65.5.16,2.29.64,2.69.64h14.82V0ZM218.02.2h-7.46v41.53h7.46V.2ZM45.64,34.28c.21-8.56.44-18.22-9.47-21.01-.76-.22-2.7-.73-3.39-.73h-14.63v7.25h13.25c1.24,0,3.5.62,4.52,1.37,1.15.85,2.65,3.39,2.65,4.8v8.33H9.22l-.29.29v7.15h60.67V12.54h-7.26v21.75h-16.69ZM53.64,47.06c-2.91.49-4.07,4.49-1.7,6.3,1.91,1.46,5.47,1.21,6.4-1.22,1.29-3.33-1.51-5.63-4.7-5.09ZM65.22,47.06c-3.74.63-4.14,6.33.04,7.11,2.67.5,4.99-.85,4.93-3.73-.06-2.65-2.6-3.78-4.97-3.38Z"/>
      <path class="cls-1" d="M200.94,0v41.73h-14.82c-.4,0-2.19-.48-2.69-.64-2.39-.75-4.53-2.47-5.75-4.65-1.99,3.41-5.88,5.07-9.67,5.63-6.43.94-14.31-.76-17.42-7-1.48,2.67-3.81,4.65-6.67,5.69-.81.29-2.98.98-3.73.98h-64.3v-7.15l.29-.29h29.35v-8.52c0-1.42-1.63-4.01-2.88-4.77-1.03-.63-3.1-1.21-4.29-1.21h-13.25v-7.25h14.63c.68,0,2.63.52,3.39.73,9.94,2.81,9.69,12.42,9.47,21.01h11.39v-18.22h7.46v18.22h9.13c3.01,0,6.77-3.51,6.77-6.56v-11.66h7.46v11.26c0,1.4,1.33,4.1,2.35,5.1,3.23,3.16,10.6,3.42,13.55-.21.74-.9,1.97-3.58,1.97-4.7v-15.08l.29-.29h7.17v14.79c0,2.89,3.07,7.35,6.18,7.35h7.17V.29l.29-.29h7.17Z"/>
      <path class="cls-1" d="M45.64,34.28h16.69V12.54h7.26v29.19H8.93v-7.15l.29-.29h29.35v-8.33c0-1.41-1.5-3.95-2.65-4.8-1.02-.75-3.28-1.37-4.52-1.37h-13.25v-7.25h14.63c.68,0,2.63.52,3.39.73,9.91,2.8,9.68,12.46,9.47,21.01Z"/>
      <rect class="cls-1" x="210.56" y=".2" width="7.46" height="41.53"/>
      <path class="cls-1" d="M65.22,47.06c2.37-.4,4.92.73,4.97,3.38.06,2.88-2.26,4.23-4.93,3.73-4.18-.78-3.79-6.48-.04-7.11Z"/>
      <path class="cls-1" d="M53.64,47.06c3.19-.54,5.99,1.75,4.7,5.09-.94,2.43-4.49,2.68-6.4,1.22-2.37-1.81-1.21-5.81,1.7-6.3Z"/>
      <path class="cls-1" d="M478.34,10.02c-8.78,1.34-18.01,2.49-26.85,3.33-8.68.82-19.24.52-27.53,2.29-9.72,2.07-9.66,8.43-14.54,15.28-3.24,4.54-7.1,7.41-12.17,9.65-1.13.5-6.43,2.61-7.25,2.59-1.15-.02-1.12-2.97-1.42-4-.88-3-2.51-5.06-.19-8.17,2-2.67,6.05-4.12,9.29-4.2,2.36-.06,4.24,1.79,6.8.64,4.37-1.97.88-8.25-2.63-9.54-.87-.32-3.82-.46-3.97-.6-.12-.11.07-.72-.12-.93-.16-.18-3.27-2.59-3.8-2.95-9.09-6.29-23.3-2.23-33.21-.06,2.16,1.88,5.76,1.42,8.36,2.36-6.55,6.36-10.76,14.52-13.65,23.1-1.25-.03-6.2-4.22-7.45-5.28-5.05-4.3-15.25-16.05-20.93-17.62-5.53-1.53-12.5-1.05-18.17-1.46-12.34-.9-24.78-1.98-37.03-3.7-11.78-1.65-23.47-3.94-34.77-7.59,4.38,8.72,11.49,17.33,21.18,20.09,10.23,2.92,20.87,2.56,31.37,3.54,11,1.04,22.01,2.97,33.08,2.91l.38.73c-.42.59-8.06.62-9.45.73-12.71.98-25.46,2.16-38.17,2.56-4.42.14-8.89-.28-13.29.17,5.77,5.74,12.61,13.26,21.28,14,3.16.27,7.63-.34,10.85-.77,10.22-1.39,22.88-5.2,32.87-5.67,1.21-.06,2.74.56,4.09.27l-40.36,13.82,5.44,3.47c1.8.67,3.47,1.66,5.23,2.41,7.39,3.15,10.11,4.41,17.83.98,8.5-3.78,16.03-10.02,24.6-13.76l-21.09,19.99c5.6-.04,11.87,3.43,17.28,1.1,1.53-.66,3.57-2.66,4.91-3.82,3.17-2.74,6.19-6.03,9.27-8.91.92.68.26.59.03,1.11-3.03,6.97-7.04,14.47-11.85,20.33l9.83,4.57,10.17-15.11-5.48,18.3,16.02,12.25v-6.73c0-.1.45-1.98.55-2h.54c-.31.68.37,1.67.37,2v6l14.86-11.53-5.4-18.65,10.22,15.59,9.78-4.32-4.79-7.39-6.85-14.06c.68-.16.86.38,1.27.72,4.46,3.74,10.86,12.79,17.03,12.59l13.33-2.05-20.36-19.99c7.66,3.66,14.55,9.25,22.16,12.92,7.53,3.63,9.71,3.91,17.46.7,4.19-1.74,8.08-4.13,12.01-6.36l-40-14.17c2.09-.14,3.87-.16,5.95.05,12.14,1.22,25.1,5.41,37.15,6.12,9.75.57,16.6-5.38,23.1-11.81.74-.73.99-1.91,2.17-2.01.1-.6-.49-.34-.9-.36-11.09-.58-22.35-.08-33.46-1.09l-24.01-1.81-.54-.72c12.1-.83,24.12-2.5,36.18-3.64,9.11-.86,18.55-.33,27.37-3.18,9.37-3.03,17.45-11.71,21.54-20.46-10.2,3.57-20.84,5.58-31.51,7.21ZM386.42,19.88c-.58-.09-6.14-2.6-7.11-3.07-.42-.2-1-.36-1.09-.91,1.75-.1,3.56.69,5.26.74,1.66.05,3.11-.54,4.7-.35,1.54.18,2.95,1.44,4.58,1.43.15.83-.05.58-.47.81-1.52.84-4.14,1.62-5.88,1.35Z"/>
      <path class="cls-1" d="M50.54,90.56h7.53c-2.94-6.49.8-12.93,7.96-13.46h13.67s0,13.46,0,13.46h7.05v-21.04l.18-.18h4.43v25.83h-45.44v-25.83h4.43l.18.18v21.04ZM75.08,81.59h-9.05c-5.01,0-6.49,6.97-1.76,8.67.14.05.98.31,1.03.31h9.78v-8.97Z"/>
      <polygon class="cls-1" points="205.8 69.35 205.8 90.56 212.97 90.56 212.97 69.35 217.4 69.35 217.58 69.53 217.58 95.17 172.39 95.17 172.39 73.23 177.01 73.23 177.01 90.56 186.85 90.56 186.85 77.11 191.46 77.11 191.46 90.56 201.31 90.56 201.31 69.35 205.8 69.35"/>
      <path class="cls-1" d="M137.4,73.23c.06.22.11.43.13.66.31,3.89-.42,8.42,0,12.24.28,2.49,1.98,4.08,4.42,4.44h20.34c.74-3.29,1.43-6.32-1.95-8.3-4.02-2.35-9.93-1.15-14.13.16-.18-.04-.9-2.69-1.01-3.12-.07-.28-.36-1.03-.16-1.18.18-.14,2.22-.68,2.62-.78,5.34-1.38,13.32-1.91,17.3,2.72,3.65,4.26,2.03,10.21.72,15.08l-23.62.02c-5.59-.61-8.87-3.9-9.17-9.52-.06-1.1.19-2.78,0-3.76-.02-.14-.06-.23-.18-.3h-8.44v12.31c-.25,1.69-.48,3.45-1.36,4.95-2.2,3.74-7.49,3.73-11.25,2.84l-.52-3.31.12-.49c3.11.11,6.91,1.07,8.11-2.69.11-.35.17-.72.26-1.07.28-5.66.07-11.35.13-17.02h12.94l.18-.18v-3.52l.18-.18h4.31Z"/>
      <path class="cls-1" d="M35.66,90.56c1.45-3.91,1.22-7.31-3.1-8.91-4.12-1.53-8.93-.36-13,.79l-1.04-4.25c6.04-2.24,16.59-3.46,20.65,2.8,2.79,4.3,1.21,9.59.06,14.16H13.07c-.29.81-.4,1.66-.71,2.47-1.95,5.03-7.24,4.94-11.8,4.1l-.56-3.89c.31-.02.6.12.91.13,3.69.13,6.93.62,7.58-3.96.29-5.62.06-11.27.14-16.9h4.5v13.46h22.54Z"/>
      <path class="cls-1" d="M101.93,69.47v25.7h-4.62v-25.4s.16-.18.12-.3h4.5Z"/>
      <path class="cls-1" d="M176.76,65.59v2.18c-.98.02-2.35-.3-2.31,1.09h3.04v2.55h-5.59v-3.21c0-.99,1.62-2.61,2.61-2.61h2.25Z"/>
      <path class="cls-1" d="M27.91,68.41c3.75-.59,4.19,4.88-.04,4.46-2.59-.26-2.75-4.03.04-4.46Z"/>
      <path class="cls-1" d="M154.5,98.48c1.83-.26,3.18.79,2.95,2.7-.26,2.12-4.14,2.56-4.83.21-.42-1.44.39-2.69,1.88-2.9Z"/>
      <path class="cls-1" d="M70.07,69.13c1.27-.22,3.01.26,3.19,1.73.51,4.16-6.34,3.25-4.71-.57.24-.55.92-1.05,1.52-1.15Z"/>
      <path class="cls-1" d="M194.46,69.87c.17.16.46.63.54.86,1.2,3.77-5.1,4.25-4.75.49.18-1.9,2.98-2.49,4.21-1.35Z"/>
      <path class="cls-1" d="M184.87,69.37c1.77-.3,3.2.55,3.07,2.46-.19,2.76-5.18,2.71-4.86-.61.09-.92.89-1.7,1.79-1.85Z"/>
      <path class="cls-1" d="M135.79,98.47c3.68-.62,4.07,4.47.58,4.47-3.16,0-3.22-4.02-.58-4.47Z"/>
      <path class="cls-1" d="M127.24,102.16c-.73-.72-.61-2.11.02-2.87,1.57-1.89,5.07-.47,4.28,2.09-.55,1.78-3.08,1.98-4.3.78Z"/>
    </g>
  </g>
</svg>