<?xml version="1.0" encoding="UTF-8"?>
<svg id="Layer_2" data-name="Layer 2" xmlns="http://www.w3.org/2000/svg" viewBox="0 0 626.54 70.03">
  <defs>
    <style>
      .cls-1 {
        fill: #cdaf8b;
      }
    </style>
  </defs>
  <g id="Layer_2-2" data-name="Layer 2">
    <g>
      <g>
        <path class="cls-1" d="M233.93,69.79v-13.82h2.86v11.19h8.26v2.64h-11.12Z"/>
        <path class="cls-1" d="M270.6,70.03c-1.35,0-2.54-.24-3.56-.73-1.02-.48-1.82-1.2-2.39-2.16-.57-.95-.86-2.11-.86-3.48v-7.71h2.86v7.5c0,.94.16,1.7.47,2.27.31.57.76.98,1.34,1.24.58.25,1.28.38,2.12.38s1.54-.13,2.13-.39c.59-.26,1.04-.68,1.36-1.27.32-.59.48-1.36.48-2.33v-7.4h2.86v7.69c0,1.36-.29,2.53-.87,3.49-.58.96-1.38,1.68-2.4,2.17-1.02.48-2.2.73-3.54.73Z"/>
        <path class="cls-1" d="M296.05,69.79l6.03-7.55-5.56-6.28h3.58l3.54,4.23h.45l3.56-4.23h3.6l-5.56,6.28,6.03,7.55h-3.66l-3.97-5.46h-.45l-3.93,5.46h-3.66Z"/>
        <path class="cls-1" d="M337.16,70.03c-1.35,0-2.54-.24-3.56-.73-1.02-.48-1.82-1.2-2.39-2.16-.57-.95-.86-2.11-.86-3.48v-7.71h2.86v7.5c0,.94.16,1.7.47,2.27.31.57.76.98,1.34,1.24.58.25,1.28.38,2.12.38s1.54-.13,2.13-.39c.59-.26,1.04-.68,1.36-1.27.32-.59.48-1.36.48-2.33v-7.4h2.86v7.69c0,1.36-.29,2.53-.87,3.49-.58.96-1.38,1.68-2.4,2.17-1.02.48-2.2.73-3.54.73Z"/>
        <path class="cls-1" d="M364.65,69.79v-13.82h8.2c1.35,0,2.43.36,3.24,1.08.81.72,1.22,1.72,1.22,2.99s-.44,2.3-1.32,3.02c-.88.72-2.12,1.07-3.73,1.07h-4.74v5.66h-2.86ZM372.71,61.55c.52,0,.93-.13,1.24-.38.31-.25.46-.62.46-1.09s-.15-.82-.46-1.08c-.31-.26-.72-.39-1.24-.39h-5.19v2.94h5.19ZM374.43,69.79l-3.01-6.54h3.07l3.07,6.54h-3.13Z"/>
        <path class="cls-1" d="M401.15,69.79v-5.73l-5.95-8.1h3.46l3.8,5.46h.43l3.84-5.46h3.19l-5.93,8.1v5.73h-2.84Z"/>
        <path class="cls-1" d="M451.56,69.79v-13.82h8.2c1.35,0,2.43.36,3.24,1.08.81.72,1.22,1.72,1.22,2.99s-.44,2.3-1.32,3.02c-.88.72-2.12,1.07-3.73,1.07h-4.74v5.66h-2.86ZM459.62,61.55c.52,0,.93-.13,1.24-.38.31-.25.46-.62.46-1.09s-.15-.82-.46-1.08c-.31-.26-.72-.39-1.24-.39h-5.19v2.94h5.19ZM461.33,69.79l-3.01-6.54h3.07l3.07,6.54h-3.13Z"/>
        <path class="cls-1" d="M484.5,69.79v-13.82h11.72v2.64h-8.85v2.53h8.08v2.62h-8.08v3.42h9.06v2.62h-11.92Z"/>
        <path class="cls-1" d="M516.73,69.79v-13.82h3.6l7.05,9.73h.47v-9.73h2.86v13.82h-3.64l-7.05-9.77h-.43v9.77h-2.86Z"/>
        <path class="cls-1" d="M555.67,69.79v-11.21h-5.66v-2.62h14.17v2.62h-5.64v11.21h-2.86Z"/>
        <path class="cls-1" d="M579.93,69.79l6.4-13.82h3.29l6.42,13.82h-3.19l-4.72-10.43h-.45l-4.7,10.43h-3.05ZM583.26,67.17l1.15-2.58h7.01l1.14,2.58h-9.3Z"/>
        <path class="cls-1" d="M615.06,69.79v-13.82h2.86v11.19h8.26v2.64h-11.12Z"/>
      </g>
      <g>
        <path class="cls-1" d="M175.48,5.25c-6.38.98-13.1,1.81-19.53,2.42-6.31.6-13.99.38-20.03,1.67-7.07,1.51-7.03,6.13-10.58,11.12-2.35,3.31-5.17,5.39-8.85,7.02-.82.36-4.68,1.9-5.27,1.89-.84-.01-.81-2.16-1.03-2.91-.64-2.19-1.83-3.68-.14-5.94,1.45-1.94,4.4-2.99,6.75-3.05,1.72-.04,3.09,1.3,4.94.46,3.18-1.43.64-6-1.91-6.94-.63-.23-2.78-.33-2.89-.44-.08-.08.05-.52-.08-.68-.12-.13-2.38-1.88-2.76-2.15-6.62-4.58-16.95-1.62-24.16-.04,1.57,1.37,4.19,1.03,6.08,1.72-4.77,4.62-7.83,10.57-9.93,16.81-.91-.02-4.51-3.07-5.42-3.84-3.68-3.13-11.09-11.67-15.22-12.82-4.02-1.11-9.09-.76-13.22-1.06-8.98-.66-18.03-1.44-26.94-2.69C16.73,4.58,8.23,2.92,0,.27c3.19,6.34,8.36,12.61,15.41,14.62,7.44,2.12,15.19,1.86,22.82,2.58,8.01.75,16.01,2.16,24.07,2.12l.28.53c-.31.43-5.86.45-6.88.53-9.25.71-18.52,1.57-27.77,1.86-3.21.1-6.46-.2-9.67.12,4.19,4.17,9.17,9.64,15.48,10.18,2.3.2,5.55-.25,7.89-.56,7.44-1.01,16.64-3.78,23.92-4.13.88-.04,1.99.41,2.97.2l-29.36,10.05,3.95,2.52c1.31.49,2.52,1.21,3.8,1.75,5.38,2.29,7.35,3.21,12.97.71,6.19-2.75,11.66-7.29,17.89-10.01l-15.34,14.54c4.07-.03,8.63,2.5,12.57.8,1.12-.48,2.6-1.94,3.57-2.78,2.3-2,4.51-4.39,6.74-6.48.67.5.19.43.02.81-2.2,5.07-5.12,10.52-8.62,14.79l7.15,3.33,7.4-10.99-3.98,13.31,11.66,8.91v-4.89c0-.08.33-1.44.4-1.46h.39c-.22.5.27,1.22.27,1.46v4.36l10.81-8.39-3.93-13.57,7.43,11.34,7.11-3.15-3.48-5.38-4.98-10.23c.5-.12.63.28.93.53,3.24,2.72,7.9,9.3,12.39,9.16l9.7-1.49-14.81-14.55c5.57,2.67,10.58,6.73,16.12,9.4,5.47,2.64,7.06,2.85,12.7.51,3.05-1.26,5.88-3.01,8.74-4.62l-29.1-10.31c1.52-.11,2.82-.12,4.33.04,8.83.89,18.26,3.94,27.02,4.46,7.1.42,12.07-3.91,16.8-8.59.54-.53.72-1.39,1.58-1.47.07-.43-.36-.25-.65-.26-8.07-.42-16.26-.06-24.34-.8l-17.47-1.32-.39-.53c8.8-.6,17.54-1.82,26.32-2.65,6.63-.62,13.5-.24,19.91-2.31,6.82-2.2,12.7-8.52,15.67-14.88-7.42,2.6-15.16,4.06-22.93,5.25ZM108.61,12.42c-.42-.07-4.47-1.89-5.17-2.23-.31-.15-.73-.26-.79-.66,1.27-.07,2.59.5,3.83.54,1.21.04,2.26-.4,3.42-.26,1.12.13,2.14,1.05,3.33,1.04.11.61-.04.42-.34.59-1.1.61-3.01,1.18-4.28.98Z"/>
        <g>
          <path class="cls-1" d="M231.97,35c.18,0,.46-.25.84-.76.38-.5.82-1.35,1.32-2.54.25-.54.66-1.47,1.22-2.78.56-1.31,1.21-2.84,1.94-4.59.74-1.75,1.51-3.57,2.32-5.48.81-1.91,1.58-3.74,2.32-5.51.74-1.76,1.39-3.31,1.94-4.64s.94-2.29,1.16-2.86c.47-1.15.72-1.98.76-2.48s-.04-.76-.22-.76h11.77c-.14,0-.2.24-.16.73.04.49.29,1.32.76,2.51.22.58.59,1.52,1.14,2.83.54,1.31,1.17,2.84,1.89,4.59.72,1.75,1.48,3.57,2.27,5.48.79,1.91,1.55,3.73,2.27,5.48.72,1.75,1.37,3.29,1.94,4.62.57,1.33.99,2.28,1.24,2.86.54,1.19,1.06,2.03,1.57,2.54s.88.76,1.14.76h-12.26c.29-.04.53-.32.73-.84.2-.52.19-1.34-.03-2.46-.04-.25-.07-.46-.11-.62-.04-.16-.11-.41-.22-.73-.14-.54-.31-.93-.49-1.16-.18-.24-.48-.37-.89-.41-.41-.04-1.09-.05-2.02-.05h-9.29c-.97,0-1.69.03-2.16.08-.47.05-.79.19-.97.41-.18.22-.33.58-.43,1.08-.04.18-.08.41-.14.7-.05.29-.1.52-.13.7-.25,1.15-.32,1.98-.19,2.48.12.5.3.77.51.81h-11.34ZM248.22,22.8h6.32c1.04,0,1.62-.09,1.73-.27.11-.18.05-.57-.16-1.19-.47-1.15-.94-2.33-1.4-3.54-.47-1.21-.91-2.38-1.32-3.54-.41-1.15-.77-2.22-1.08-3.21-.31-.99-.57-1.83-.78-2.51h-.11c-.5,1.33-1.02,2.74-1.57,4.21-.54,1.48-1.04,2.84-1.51,4.1-.47,1.26-.99,2.7-1.57,4.32-.25.58-.34.99-.27,1.24.07.25.65.38,1.73.38Z"/>
          <path class="cls-1" d="M284.99,35c.25,0,.5-.25.76-.76s.38-1.33.38-2.49V5.84c0-1.15-.13-1.97-.38-2.46-.25-.49-.5-.75-.76-.78h10.59c-.25,0-.51.25-.76.76-.25.5-.38,1.35-.38,2.54v21.44c0,.79.1,1.27.3,1.43s.84.24,1.92.24h13.01c2.09,0,3.77-.24,5.05-.73,1.28-.49,2.11-.96,2.51-1.43l-1.62,6.48v1.67h-30.62Z"/>
          <path class="cls-1" d="M362.81,35.54c-3.92,0-7.4-.18-10.42-.54-3.02-.36-5.2-.72-6.53-1.08v-1.62l-1.08-6.86c.68.58,1.82,1.19,3.4,1.84,1.59.65,3.62,1.2,6.1,1.65,2.48.45,5.36.67,8.64.67,2.02,0,3.56-.13,4.64-.4,1.08-.27,1.82-.66,2.21-1.16.4-.5.6-1.1.6-1.78,0-.86-.29-1.54-.86-2.03-.58-.49-1.61-.89-3.1-1.21-1.5-.33-3.61-.67-6.35-1.03-3.28-.43-6.01-1.03-8.21-1.78-2.2-.75-3.83-1.83-4.91-3.21-1.08-1.39-1.62-3.23-1.62-5.54,0-1.87.49-3.51,1.46-4.91.97-1.4,2.54-2.5,4.7-3.29,2.16-.79,5.02-1.19,8.59-1.19,3.74,0,6.95.18,9.61.54,2.66.36,4.5.72,5.51,1.08v1.62l1.62,5.94c-.9-.47-2.2-.95-3.89-1.46s-3.65-.93-5.89-1.27c-2.23-.34-4.64-.51-7.24-.51-1.62,0-2.88.13-3.78.41-.9.27-1.54.65-1.91,1.13-.38.49-.57,1.09-.57,1.81,0,.86.33,1.56,1,2.08s1.75.94,3.27,1.27,3.54.63,6.1.92c3.92.43,6.95,1.08,9.07,1.94,2.12.86,3.59,1.97,4.4,3.32.81,1.35,1.22,2.98,1.22,4.89,0,1.66-.31,3.1-.92,4.35-.61,1.24-1.56,2.26-2.83,3.05-1.28.79-2.92,1.39-4.91,1.78-2,.4-4.37.59-7.1.59Z"/>
          <path class="cls-1" d="M391.43,35c.18,0,.46-.25.84-.76.38-.5.82-1.35,1.32-2.54.25-.54.66-1.47,1.22-2.78.56-1.31,1.21-2.84,1.94-4.59.74-1.75,1.51-3.57,2.32-5.48.81-1.91,1.58-3.74,2.32-5.51.74-1.76,1.39-3.31,1.94-4.64s.94-2.29,1.16-2.86c.47-1.15.72-1.98.76-2.48s-.04-.76-.22-.76h11.77c-.14,0-.2.24-.16.73.04.49.29,1.32.76,2.51.22.58.59,1.52,1.14,2.83.54,1.31,1.17,2.84,1.89,4.59.72,1.75,1.48,3.57,2.27,5.48.79,1.91,1.55,3.73,2.27,5.48.72,1.75,1.37,3.29,1.94,4.62.57,1.33.99,2.28,1.24,2.86.54,1.19,1.06,2.03,1.57,2.54s.88.76,1.14.76h-12.26c.29-.04.53-.32.73-.84.2-.52.19-1.34-.03-2.46-.04-.25-.07-.46-.11-.62-.04-.16-.11-.41-.22-.73-.14-.54-.31-.93-.49-1.16-.18-.24-.48-.37-.89-.41-.41-.04-1.09-.05-2.02-.05h-9.29c-.97,0-1.69.03-2.16.08-.47.05-.79.19-.97.41-.18.22-.33.58-.43,1.08-.04.18-.08.41-.14.7-.05.29-.1.52-.13.7-.25,1.15-.32,1.98-.19,2.48.12.5.3.77.51.81h-11.34ZM407.68,22.8h6.32c1.04,0,1.62-.09,1.73-.27.11-.18.05-.57-.16-1.19-.47-1.15-.94-2.33-1.4-3.54-.47-1.21-.91-2.38-1.32-3.54-.41-1.15-.77-2.22-1.08-3.21-.31-.99-.57-1.83-.78-2.51h-.11c-.5,1.33-1.02,2.74-1.57,4.21-.54,1.48-1.04,2.84-1.51,4.1-.47,1.26-.99,2.7-1.57,4.32-.25.58-.34.99-.27,1.24.07.25.65.38,1.73.38Z"/>
          <path class="cls-1" d="M444.45,35c.25,0,.5-.25.76-.76s.38-1.33.38-2.49V5.84c0-1.15-.13-1.97-.38-2.46-.25-.49-.5-.75-.76-.78h16.96c3.17,0,5.83.31,7.99.92,2.16.61,3.9,1.46,5.21,2.54s2.31,2.31,3,3.7c.69,1.39,1.14,2.85,1.38,4.4.23,1.55.35,3.11.35,4.7,0,1.44-.12,2.92-.35,4.46-.24,1.53-.7,2.99-1.4,4.37-.7,1.39-1.71,2.63-3.02,3.72-1.31,1.1-3.04,1.97-5.18,2.62s-4.8.97-7.96.97h-16.96ZM456.06,29h2.21c3.1,0,5.58-.26,7.45-.78,1.87-.52,3.24-1.49,4.1-2.89s1.3-3.44,1.3-6.1v-.97c0-2.81-.4-4.89-1.19-6.24-.79-1.35-2.12-2.24-3.99-2.67-1.87-.43-4.43-.65-7.67-.65h-2.21c-1.04,0-1.67.06-1.86.19-.2.13-.3.57-.3,1.32v17.17c0,.79.1,1.26.3,1.4s.82.21,1.86.21Z"/>
          <path class="cls-1" d="M495,35c.25,0,.5-.25.76-.76s.38-1.33.38-2.49V5.84c0-1.15-.13-1.97-.38-2.46-.25-.49-.5-.75-.76-.78h31.54v1.62l1.08,6.26c-.9-.4-2.48-.82-4.75-1.27-2.27-.45-5.01-.67-8.21-.67h-7.99c-1.08,0-1.72.08-1.92.24-.2.16-.3.62-.3,1.38v4c0,.79.1,1.26.3,1.4s.82.22,1.86.22h7.78c2.09,0,3.77-.12,5.05-.35,1.28-.23,2.12-.48,2.51-.73-.14.68-.31,1.48-.49,2.38-.18.9-.33,1.76-.43,2.59-.11.83-.16,1.51-.16,2.05h-14.26c-1.04,0-1.67.06-1.86.19-.2.12-.3.6-.3,1.43v4c0,.83.09,1.31.27,1.46.18.14.81.21,1.89.21h14.58c2.09,0,3.77-.24,5.05-.73,1.28-.49,2.11-.96,2.51-1.43l-1.08,6.48v1.67h-32.67Z"/>
          <path class="cls-1" d="M543.33,35c.25,0,.5-.25.76-.76.25-.5.38-1.33.38-2.49V5.84c0-1.15-.13-1.97-.38-2.46-.25-.49-.5-.75-.76-.78h31.54s0,1.62,0,1.62l1.08,6.26c-.9-.4-2.48-.82-4.75-1.27-2.27-.45-5.01-.67-8.21-.67h-7.99c-1.08,0-1.72.08-1.92.24-.2.16-.3.62-.3,1.38v4c0,.79.1,1.26.3,1.4s.82.22,1.86.22h7.78c2.09,0,3.77-.12,5.05-.35,1.28-.23,2.12-.48,2.51-.73-.14.68-.31,1.48-.49,2.38-.18.9-.33,1.76-.43,2.59-.11.83-.16,1.51-.16,2.05h-14.26c-1.04,0-1.67.06-1.86.19-.2.12-.3.6-.3,1.43v4c0,.83.09,1.31.27,1.46.18.14.81.21,1.89.21h14.58c2.09,0,3.77-.24,5.05-.73,1.28-.49,2.11-.96,2.51-1.43l-1.08,6.48v1.67s-32.67,0-32.67,0Z"/>
          <path class="cls-1" d="M591.66,35c.25,0,.5-.25.76-.76.25-.5.38-1.33.38-2.49V5.84c0-1.15-.13-1.97-.38-2.46-.25-.49-.5-.75-.76-.78h16.96c3.17,0,5.83.31,7.99.92,2.16.61,3.9,1.46,5.21,2.54,1.31,1.08,2.31,2.31,3,3.7.69,1.39,1.14,2.85,1.38,4.4.23,1.55.35,3.11.35,4.7,0,1.44-.12,2.92-.35,4.46-.24,1.53-.7,2.99-1.4,4.37-.7,1.39-1.71,2.63-3.02,3.72-1.31,1.1-3.04,1.97-5.18,2.62-2.14.65-4.8.97-7.96.97h-16.96ZM603.27,29h2.21c3.1,0,5.58-.26,7.45-.78,1.87-.52,3.24-1.49,4.1-2.89.86-1.4,1.3-3.44,1.3-6.1v-.97c0-2.81-.4-4.89-1.19-6.24-.79-1.35-2.12-2.24-3.99-2.67-1.87-.43-4.43-.65-7.67-.65h-2.21c-1.04,0-1.67.06-1.86.19-.2.13-.3.57-.3,1.32v17.17c0,.79.1,1.26.3,1.4s.82.21,1.86.21Z"/>
        </g>
      </g>
    </g>
  </g>
</svg>